<mxfile>
    <diagram id="prtHgNgQTEPvFCAcTncT" name="Page-1">
        <mxGraphModel dx="1954" dy="712" grid="1" gridSize="10" guides="1" tooltips="1" connect="1" arrows="1" fold="1" page="1" pageScale="1" pageWidth="827" pageHeight="1169" math="0" shadow="0">
            <root>
                <mxCell id="0"/>
                <mxCell id="1" parent="0"/>
                <mxCell id="dNxyNK7c78bLwvsdeMH5-11" value="Docker Compose" style="swimlane;html=1;startSize=20;horizontal=1;containerType=tree;glass=0;treeMoving=0;treeFolding=0;swimlaneLine=1;arcSize=15;moveCells=0;deletable=1;resizable=1;movable=1;editable=1;recursiveResize=1;" parent="1" vertex="1">
                    <mxGeometry x="60" y="110" width="680" height="150" as="geometry">
                        <mxRectangle x="60" y="110" width="130" height="20" as="alternateBounds"/>
                    </mxGeometry>
                </mxCell>
                <UserObject label="php8-fpm&lt;br&gt;&lt;br&gt;&lt;font style=&quot;font-size: 10px&quot;&gt;xdebug&lt;/font&gt;" placeholders="1" id="dNxyNK7c78bLwvsdeMH5-12">
                    <mxCell style="label;image=data:image/png,iVBORw0KGgoAAAANSUhEUgAAAMgAAABqCAYAAAD5jB57AAAgAElEQVR4nO19B1SV17L/eev/3lve3HuT3JvkJvfmJs/kvdwSk1gAAemIIh1BulQREFQQkI6CDQt2RVE6oiIWLIA0KxbsHcXee4tdgfmv38Zj4NDOPnDOB3pmrUkB9vn22XvPN3tmfjMjUpKSlKSkDicLH5+P7IePi/QYNa3IJ3j+iVGxS2+GTsx+EpO4+vXEeZtqZywprZubsY2ScipoSe4eWrxyNyUt30ULllXQ3KwdNDtjO81M20bTU7bQtCXlNCW5lCYllVD8gmIaP28zxcwpoqhZBRSRuInGTt9IIVPXU9CUfBo9aS2NnLCGRozPo+HRK8k9bBk5j8moswtIrrUePve1ufu0J4Nc4m4a2kUd17MMLNQx9w9TsbD4SHkElNTh5Ogbpuo9asryoNjks+Nn5j6ZnVpck5VfSZu2naSSijO0eedpKtxeRZu2nqQN5SdoXelxWlN8jPKKjlJuwWFavvEQLVt/kDLX7af0NfsoNa+yXlhW7KaFObtofvZOmpO5g2alb6MZqVtp2pItNGVxGU1KKv1NUGYXUeTMAgqfsYlCp22g4IT1FDhpHY2csJb849aQ77g88o5ZRV6RK8k9fAW5js0h55Bl5BCURXajM8lmZDpZ+aeRhU8KGbvPIT3b6FfaZqPvaBp5H+yr77yon75zL+XRUVKb5BowISZ4/NIz0xZteJmdX1lXUnGa9hy5SHuOXKLdhy5SxcELtGP/edpWeY627D1LZbur64Vkx2kq3HaKNm49SevfCsnq4qO0qugIrSw4TDkbD1L2+gOUsXY/pa2upKWr9lLyyj1NtEli6jaavnQLJSSX0+RFpTRhYQmNn1dMsUyTFL7TJBCQoMn5NGriWgqIX0N+41bT8JhVNCwqlzwiICDLySVkGTmOySa7wEyyHZlB1hAQv1Qy81lKpsMl2HsJGXvMJUP7CTU6FkEPNfp77uqtYztCeWQ+ULKzC/9kePCMzJiEZTcWZpW9yS89SvuOXaFjZ27Q0dM36EjVdTp86hodPHGV9h+/wn6398jlpkKyp15IiivOUNGOKirYdoo2bDlJ+WXHaW3JMcrbfJRyCw/Tik2HaNmGg5S2Zh8tyd1Hi1fspXnZu2hu1i6akbqTpi7dQZMXb6f4hdsobv5WGjdvC8XMKafoOaUUObuEImeWUMTMIgqbUUih0zbRmISNb69a65iAjBi/mnxiV9Gw6FzyjFhJbmHLySU0h5yCs8k+MItsR2XQ4IB0smQCktJUQFrgQV5J1N9xSp2O5dhnGgO8q1R07RN79ND/g9D7p6QOJteRMd8FxyyqXJBZ+qpo+yk6cfYmnblwh04zvk1V52/TqXO36OTZW3Si+uZbQYGQXKdDJ6/RgeNXmxWS8t1naV1ZFWXmH6Pk3EM0J+sATUuppAlJeyhqzi4KnbGTRiVsJ7/4reQ1bgt5xnQwx5aTV2wZecWWkldMMXnFFJFndAF5RG4gt4h8Gjp2DTmFrCL7wByyCcggqxFpZO4rvYA0xybDksnIeWqdtuWYJ2p6LoU9Dc2/Vh7YLkae/sHfBEXNr1iQXvxy8/aTdOLsLTp76S6dvXyXzr1l/Dd+Vg2+eIcJTENBOV59k2mTioOXadO2asrZeJKSVhyhhKX7KWL2Lho5eQd5xcrh0MuR3aNKaGh4ITmGrCe7MWvIdvRKsgrIJnO/tHYIzGIyckqo07YIeqKm51zYU1MpMJ2SnH1jfgiNT63KWru7Fm99HHoIwLnL9+j8lXt04er9Zhm/w98cPX2LSnZdpGUbqygx4xCFJu4i73FbBT/UCuPoLeQaWUxOoRtoSGAeWQfkkLkvv+AM8lxAuoPDX/fVG7qjh7bFt0Kfiw+aXHzjhk6cnfdobfFhOnL6BtMAZxoIxoWr9+ji1ft06doDunT9AV0G33hIF67dp50Hr1IOhCG9XhiGfUjCwMGuEfVCYxeYx7SN2XDpr2gm3ovJ0H58rYbRsAu/aJhbCH1ePgiy94vVCp+UeSNnQ2XdgRPX2FUIV6KGwiHWGEwobjyk6sv3qGjnRUrOO0Exc/cqhaEdAuMRU06u4UXkELKOBo9cTma+qVJfxQxsY2r6GnqeUutnrXQrdySpqCT/V0DY/MrUVRV1cLniCgVPE4zpRsJxWSwc92jXoWuUuf4UxSXto+Hjtwn+Jn5f2SO6nFzCCsh+zBqy8s+S2tDXs4msUdN1KBSJ9P+zQw/Lh0ROvvGRCUkbXxXtOE17j1xiniS4XuFdggENjxOMahjYJ8/epvzyszQj/RD5T9wh+MH5UNk9qoycx25kDgAzn7a1CwKXWmajnvTRtPAV+rx1GW3hFzp3X9KybXVb9pyjnQcuMNdq5dHLLCYh1h7Hz9ykfceuMaM6fhG0hNKG6JzaZRMz+i1809vWKoMjalS17QqFPoOdkpwsnD4Pjs+4u6rwCAu+bd17jrbvP89iDnsOX2ICcuDEVTp08irll1fTlCX7PywvU1fn6C3M2B8ckNOmVhngMp3UDFyr9Hv1+lT0oZOVZ8iPoRMyHiHajGg0oBvle6ppa+U5Fozbdegiu16t31JNiekHyS++a9kTYTP30PKCasorPicV524+R9NSDws+b3myR1QZOQbnk7X/slYFZaDrbNIw8rz+s7bR96IPjaxdgvtHTF35EoIBeAZgGsA0le6CgJxlUI7yvecoZc0xCp+1W/BNlYXhOn7w+CXJQlNTDgk+f0Xw0PAisg3MbdVeMfaYR5qDfB/11rJUFb3vZGRk90lA1JI7Gev2M9QrcEsbxQKys15A8ktP0aTkShrWxe2K2AX72GEPDQ2jr/76jVRsYmrBxqSsOSX4/BVtrzgG55OFX2bLGsV9DvU1dKvu3r17N9H7SMOC515YtLyCIVzzio7QmpLfBKRw+ynK2XSMYubtJs/Yri0YYk5bW8UOu2Y/Her2uz9KxSNHBrIxcUn7BZ+/UOw8dmOrLuMBQ6eTqq7jQdH7QjZDI+ImLSisy8o/wKDfYgFZ+1ZA0tcdpqi5u7octqktLtt7lV69ekUff/KZ1AKyNCWV3rypVcZuYuoFpTU7RW9weE0fTdOu6x42cRn14+jxmS+WrNpDGWv3UbaEgKSsPkjB03cKfpDlxWcvP6KjR49KLRzgAwcO0qXrvwo+987EQ8MLyco/u3n3sNci0jAe/qCHilHXwn05+UzejXRSZM+lrq5kAiLWIOlrD1LUnIr3TmNIGugvX9VQRkaW1MLxx4//TC9evKDtB24IPv/OqlEs/DKav3a5ziSVftbrRJ2dLOxGfjdqXParBdkVtGjF7noByasXkLQ1+2ncggoa9p7YGK1x1Ny9zJYYMyZEagFRVdVgY7I3nBF8/p2Xy8hhzJrmE7+8l1A/Y59f1dRMvxJ1RrJ0jUhF0YF5WTtZKmlDAZmWupv8JnStGEZ7OHnVSXbY9Q2MpBYQ7+G+bMyk5AOCz7+zs1tkCdmMWtGsNjFymUq91cwTRJ2JnANmXkFljtnp21mONROQ5Ugr3U2BCdsFX1BFc9HOy1RTU0Offf6l1AIyf0ES1dbWkW8XC4Z6Csgu4YXNuoaRl6KqY3dIaLkQDXQM/iZgXE4tqnEkpm6lWRCQzHoBiVu444OFlp86/4Cqqk5zGegVFbvo2u2ngs+9K8ZQbANzm9UmWuajX6noW3wuiHAMsB7tOnbqOlamZuqSLTQjpV5AEtO2U+CUD1MwwHA+PHvxhlasyJVaOD76/Sf0+PGvtOvwTcHn31XZZWxBs6BIA7u4uh5qhopN2BpoHxoZnriRJi4socmLICDlTEAmJm0lnzjhF0tIHjtzN7MlwiOipBaQn37uxcasKDwr+Py7um1i1YxL2MgpgXqqm3gpRDgsnCJzUaMJNZtQuwk1nKYml1NYYv3bU+hFEpoXrDjODvsgE3OpBWSoq8cHhcHylHPW45Cg1U2hKm6zSUXddK5chcPMMSwXxctQFhNV/yYsKKGJSaUUmFAuly+L6iGZ689IjYbl4ZVFZykj/zTjRbknKH7Rfva89s55w9aLVFdXR19+9XepBSQxcRYTkI3bLrU65+yNZ2jp6lM0L+cYQ/3GJ+2n4OntRyHEzKuk5YVn5bLOOQXV79Z57rJjFD2vknzi5O+IcAzJb5JDb+w+j3ppmM6Si3AYO4SvC5m2npXBjJldSOPmbWZaxH+C/L7k0TP3SNEEBO6x6vsMeg64OvecT9+jCxcuchnopaXl7Zoz4ClXbj6hbfuvU9LKE+Q3QXrPITIwn798Q4qk2to6unHnGe09dpsJfMAk+WSBIh1YMmZi7DmfemtaLO5Q4Rg4JGRe0OR1FDZ9I0UkFlD07EKKmbOZ/OLloznA8IC9el1LeXmr6d8//tzh/PMvvRmQEAwUrYfnMIqMiqH16zfQ7du3323mmUsP2aHzkjLA+ejXV+wzeATkf//vX1LNWU1Nk3R0DcjUzJLsHZzJ3cOLJkyczNbo2PHj9PJlPbz+1esa2lJ5jcYmtp0qkJh+hI1xGeoul3VWUVFna6yto082Nnbk4zuCZs6cTbt27WbIAbGA7z5yi2nxDheS8IImcHpct3qqGId3iHAYWo7xGxm/htWExfUK9kdEYiH5xpXJTTjAsfMruaPRHcW/++hj6quuxQ7f9evX2TyAkZqUfLDVOQdNrWB/Gxc/UeFzBv/pz39hh3Dt2nUsDoODt37LxVbd7bgG4Ur4ly//pvD5/vmzv5C1tS3z+AHYWVdHtOfILQqaVtGhZ8k1oojMJSqwDBiaCE2i1y7h0DX3/WFY5HJWTRwCguriYdML5C4cYORE8Eaj5cHASAUEjKb79++zq0F+KwdudtZRNmdsupBzBv/Ssw8Vl5Sy+Rw7c69FhHDlsdt09uw5wefb/bsfKDMzmwnrk2ev2VrK+7plYDf+TW8dky9kFhDnoJRalNlHoeQxU/IpZOoG8o0rlbtwgEt2X+WORsuT//7Nd1RSWsYOHOIVzV251pSeZ7/HZgs9X7EmnDp1OpvTjhZAkLfvP6fVq9cIPtdubxneP1xxoU0y15/u0DPlHLapieGubRH0UCbhMHOddMNv/GpWQXzUxHWs5L5ffLFChAOMuz9vNFrejIDe4uQl7MBBgCXnfODkHbp586bg82wuzwQEe0PSQMcbOzpmnOBz7CZhk505U8009uzsjtUkDsH5TVzAfQ1cy7mEo7/l6DD0m0BzFjRpGTVhLY2IL1SYcODt/OJlDVc0WpFvZcDYQYtXnWw077sPXlDR5mLB5yjJsC/u3btHZy4+bDTfhJRD7HuYW1gJPsduEgwtfO3aNYZKkMWb2Brbjs5t4tlS1TAxkVI8fP7LOTiDvKNzyTc2j0bErSb/+A3kGSM/j1VLcHGeaLSijeETJ0/S8xdvaNSU+qQv/BuUkDBN8Pk1x9OnJ7L5NfRsIRYE+vrv3QWfX7dm2GjAIKqtrWXYto49Y2VkOaJxWq+eTfQrqcTD2CnuIjoVQYOgMYvv+DWsB4WihAO8OPcE27iBxqaCb1JLrKtnyK4nhTsuszlPTzvM5uzg6NJp5ytZEAK21OXLVwSfW7dWeMnSFDbvaakdizJwjdjcxGhX1XfOb1U4dE19fnYJySaP8BXkFbWStfbyjt2kUOEA49DxRqNtbe0pJTWtRZ4/fyFz2wYHh5Kbuyepa2jRp3/6ol2bhwDf0+evmYcIgUXQP//VQ+rxiA3AQ9YaI0/E2cWNhgxxYLGbP/zxTzK7VLGmBW8FGgz08IaNm7g1UUor64wYR0zseFaAAt68f/37J3YtbY89AmfNwZN3OvycoU9K41pcs+gntYHftCgg5u4zng8NzSH38OXkGbmSvKNXK1w4wCfPPeCORsMTwx/RraVNBYVkZm4p0+YhuAYC9GPP0Vv04MEDrsOAeAUvwcMTP2ES/f4Pn3LP9+GjR1RxqB4xjLwTGMF4aUg7/rPPv2SHlZewLrNnz6Uf/vFvmda5sGgzvamp7fi6y9FbmuSTaAz0rmpWOAwGuqugM6pL6DLW5w7XLK/oIkEEBH5wHB6eRYQvv+pCy3dV3/jtNHLyTmbwIQiJq8bWfdeZBgDh7cdTgQT8+Rdf0evXr1kFE0AntmzZyjX+/PkLbM6YU0sMewwBylmZR2lV8TlWDAIEjch70CBce4/eYusxcfEB9jnQvNKO19Pv32bdLsBGEDDF3BOWHmJ2DiBD0F6PHj8mO3sn7nn7+49iz53TwR4tca57Y7zWXOqtNeBvzdgekx45BmWxFsJoJeweIYz2CE2sh4uPGx/P5aXBBmyuuML9PLxJARKU1cDeu7eSCQeej+uFtOP++rdv2ZhN2y9xz/nAiTv0/PlzLoGGixpQFHFRCIBAQd//7z+l/oygoBA2BkXxeOccPmsPXbj6mEXM+/Tpy7XG4nQA7JM8zpzlCAktYuR+oInnyiYgjeyDslh3VFyzPKIU59ZtyPNzjrHFsLQcLPUCDhhowsYgF1zW5yKGgc3729f/w7V5WVnL3l0lYNtIO854kBkbs3DFce65AiHLa+/8T/f/Y2MK3gokBAUahee7pqdnMnycrJmioxN2MrctL1YN10loakT95XHmnEPXNxKQ/s5T60Qiu//3m3FuFVyGdsHoq43+2i6hK8hDAOEQw8VB33z7vdQLGDo2nI3BdUTW5yZm1IP2AALk2bzJkxPeCQjgHdKOCwuPZGPwZpVVQGAA8zgEQICd4zMuXv+VQVF4vuuRI0fowrXH7dpfgBJx1eK1oS5dusyCx/LKIbHwa5yNqKJlM+WdgAxyn/XGZmQ6DRmdSbBDXMPzBREO8JHT9xhAkGfxcnJWsDpU7cmBF8cxYADzPDt2XBwb9+TJU3aNkXYcgqB4m8qSy4GrJBwMiMdI+zxXN893SVne47cyIOO0aTOkHv/xJ58xDQtIfXv2Vxx74dF+YKAqLl6TX1E9O4kkq34mAbffCYilXwprNg8tYh+YSe5RioOUSPLDX18yzxLP4iFoB+O1Pc9FDgU7QFOncz07KjqWjQN8m2fcqVNVVHVBtjfi4aq7dOXKVa7nwT4CvglG9PiF9YW1nZxdpR6voanNxrQXH5W1od72gcuad48v33git3OHuEjjPiUz6phwaA/yibPwSyUr/zSCFrEPyhFMOALfwsUnTZoi9cLhLfrmzRvmSWrPs+FClMVQF4MBUbZH2jFf/OWvTAMU7+J3KoCR1LVhw0auecLDdufBczY+9W1hbeRrSDt+xIiRbMyExe2r27VsY7VMAnL16tUmUJmOZslrlqrOYCuRrkXwRXPfFLIckcq0iGNInmACAmAayM7OUeqFQwJRW65HaTjmbf4JXIqyAAER0JN2jIHhgHqnQh6/U0Gcc8ITv0Bs5uHDh7TveL2Ri5cJYiI8MZvFyUtY3KS96bIIVMJ7x3M9BD979pwOnror1/OH3opNQIy61uHPzHyWErSItX8auYRtEExAxHBxRE95XY+4NrTn2ciXBiG7kPfNDELpUGnHIJoPQi447zxnZdY7E5AYJe3zcN8HYX3xGdWXH3HHbPbt28/Setu7x/tP3OG2Mb/7/h8tIqjlifTVMhlxU2TkNKkW/yPWIm4RwgQHwYATAHXKs3hp6Rn0+o3srkcxw8eONxvcoTzPhy2AmAQPBASJQbI6FcQvEZ74BfBhoJkZR96mMtfQnDnzpB7/+z98yt7gOw+2v7A2rofIq+FZY2Dy6u2fM3Kv1NgYwBjxUjTQbQ77H7PhS8nCN5X1kBNKQO4+fCGI6xF87spjOn7iBNezAZ0A7d9/gGvc0WPHZHYqIEh469YtrufBrgLBUydGSvPEbFRU1NkYuJfbs8ZwaYOQ+88zfwSNmX24VL5lkdyiSiTradWJBnkmvfuBuU+KYMKBkjvwsvC4Hj/59PMOcT3i4NTU1NGChYu4Ns5vRADbOCBOpR0DgCScCiiqIMtckQG4ubiEa57IUcGbu2FhbZ6YzTBvnw45oGIDnafrFnjHjp3MLa2IusWNwIvuc0hkMmzxux+YCSggM97CxQEAlHbhUFihI1yPq0vqry3IP+DZuFWr8tg4oG6lHdNPS5eNSVtXJcNLZCf3SwSMLEe4hsWFtZ8+fcYVqJs3bwG7fo6Y2L5C5FdvPWUgVJ54EfBueAnK6hLnZfMGFVAGeS0kkenwJb9pEN80wQREHEDq8VNPqRfP18+fjQHwTtbnDo/bxjIBea9XsDlgL4Fw6KUdB2FiAUkZ+hAiJ4I3foHMPBCqm+AzkHy0Z89eru+6ffsOunn3WYe8ACMio7meDZg/u95tqlaMgPim/aZFhiVDgyzqFBoEKFNAEHhcj0mLktnVqD2uR4AFQV7DhnNtHCApIGCEcNWTdhyuY7L2IRTnnPDELwYPHsLGwEuHqP3T52/Yukk7/ncffcz2BUXe2vMSAqATlWEA0uRZZ+C2sMdwbyviHDZMokIbBRH+0fDeJZSAYAFx1+RZPLwJr9162q63GvIM4FXhTeoRu3dhcPOMg0Eva0QYOCbenBPU6AKFztj9rrA2irdJO77HTz3ZGEDtZZkzhBI2IgjF+XjW6h///JHZa3BMKOIMApMlmUAlGug6s9EPUSFb0cIBmAeCULjrSrt4uEPjLi1rywCghoFMRcopT9wFjFpdYoLLludaBpfwDhndpddvP6Vt27ZzzTU/fz3Lr2lYWBu2m7TjnV3c2JgZ6Ye554scHKCGeddJMt128pLWC/Z1FLtFNPZi9XeaVCsytI+vafhD9FlQtIBgAXivOb16q7IxKLrM8zZDizMAIkEwGHlBczAwkQMiJgT9ePsQwpsjy2HDS4QnfiFGwZ44d/9drAc5ISiGJ+34GTNmvnMR87zwUHP33sP60qKoAsNjmItdy7i+ok6yos6hS9imRgKiazX2mUjHMuTXhj90CF6rcAERu/94EmmgrsV3a7iIJTkwoT6rDQY8IN7llddYnAUEr8isWXMYJor3rYZSqCAgS0GG/Qdy9yGcIsMbEVmFvNcU5LaAxHnoqLB46NBhru9bUlrGXMTNrTEY1eUR30CEH2VMESlHIBIE7ezoNJR7jXE7wEsItlp7Uhh4GWe/EaJ3kN8Vkbqh546GPxw8crnCBQQRWkRqeVyPeJPyEAolo80Z3viyVj7s3UeNzRPCIYacww0p7XgAGuEu5am+LmZ0vwVBc0r7PBS5BqG9Az7j0ZNXlJqWzvWd7969y7XO+HtA+ZHKy+O8aMjAmYHWll1Q6DkcHJDTOCdE12GZSMXASl1oVy8wPpWV+7gWEfAJVARsiRGthUsVb1xcbWStBtKw9Ciq/eE+HzJjF508/4BOnz7D9RkQUNgRsqwR7BbenBOsAQhveLzp2VVpVJDU4z/59PNW1xgcEjKWrTO8ZTzwl5YYQFUY5rgWSltRv6O4YYFrE+9kUtG3/ReDvKPSdSM7JExx6bZwAcKNx+N6VDTDNYl8BMxTXFQZgpKbm8fdhxDVT2RZJ1SX541fYH7o/YGDJkZKa2nrCb6e3VpglAmC3QHbRVFu3ZbsD0OH+Np3CVPapiNvN/wlSjMqamITFtVX10C+gdAb1BwDlr1zZwUzkGHvYM6oTsiLKUL+AwgBUUW9RKDxTr/NocB1BW9mXph5NwUxUoJ//fUJqzKD1ANFCkdzUHfNAZ4n3gmImqZtYMNrlplPGrlHKwa0CJgICIXchN4kSYaHC41pYDcsaZC7sWD5cW5ovDjlFa3TeNcIUXcQkAOyJmUdOnWXfReh17RbM+zp5c1sRGjlWAGEwyO6jMwa9Q9ZQn20Bts0qmvS33FSXUMJsleQNwugPXiVZDXo5MWoOoK8BXhS4LJsrg/hV3/9hjvlFXgq3jUCbos3fgHvGkg8d1xbli1bLvi6dmvAcDej6AUEGR5GITQH2EGiwmKzdXr79ncrb/hHSD9E5Tl5T+781ccMsi70Zon5yy+/poVJi5kAID9+ytKmLlnEURBf4PncsrJ6OL8sa1S+9xqLX/DUwYLxDMIbWVyQIjQ0TPD17faWcWOAyxmEayDc8kIIh0d004omqtqOKU0EpHt3/W7o3dZIi4xZI9fJifsQot6S0BuG4nNjwyIYXgiEEp0tdb2F4CBCzfP5+FzU3pJlnc5decQdv0C9LnENK0TBZUErd5MD9+ylwtzA0BqIlywvqFa4t6oh20tUM+nvNKVxTayGpG7kuafhHwP66x4lv8ruqNAHQtqsEJuFeAjg9YBBALYCgnZoTdWjfx5vH0JgihqmvMryEuGNX8DeQBIYPiOv5Dw7kEL0Ifzo959Q3779WIAVlV9AuLYieMkTnZdXgpRkg081PcccUWtk5Dy9kS2C4Im8Joj7MQg1X3miw+LutNIysFOoCQtBRC5FQWERS5UVE1J2AQREzai25ix+GwO2Le3zxdcdWfruRcyuz8JDYFTa58EjBHfp1n31SVlA4lZXn+U62A27AGtKyWifhrgTNDGKPOzevYd5psSEDsCo7ChLsTxFBAb1h4x706pwMC1i4Jxl4t24RZVTqHwKOZTsusLtehRHWdtD9x69YAWVYWwD0cuTqYYDCwQwL8F96S9DP3DUsQJEXRYSCyRyOXhiNuBz5+qTyGQluMURFEW50BWFZ1lRDSGvUpLsGNK43CgCg320h8SJpCEdq7HPGl21fNPkgvJFnSME4Hg2DvWgHj99xXqXS8tA7gIQiTeXLDAPSQY+iOf5YEDNZX0eoOq8zxPjvZAFCIcDT8wGfVkw5vjZ+1zPRDASvc4RtZcl30VRjLMs2RZay2TEDZG01E/frpex+7xGH2Dln8Xw8h01SbxNUNmD1/WIqxHsBKEXuaswro28MRtxFZGsDfKtIiIMlzWp5o4qihq9BnUX8ZCKrkOiybDkRh80JHBVh000ck59dQ0UnubBQzVMH1Vy22uAdADemI24sPak5PZVUeyMPCSwcQPPQV6LSEXDdrRIFtI29b/R8MPAaFvVkX0I0bpA2o1DN5InmZwAAAfrSURBVFYQrkxCL3RXYSSU8cZsli9fyWwIXwVUEVEkSxaoBmv09zoiag/pDg57LvmhjiH5HdKHkNf1iN53TOs06NSq5NbXACnJvDEbFNZG/0LP92h9HUKa9kfXNh15R9ReUlc3+djAPo5VX2wMRVnX7j6EaJvG24dQnD6qZOmzEHliNuI+hHB7e74n64yAt+T51bUOe96jR4//FnUEqfZz+MnIeVpdRwoJDnpe3mouAYFAQbCEXvCuwuI+hICR8/YhlAV17NkJ2SF4XRPhMLAb/4bbKG+LevY1/Ud/p4QmQmIrg+Eu7kOIhBsejBSMTRQ+E3rRuwqLe3Hw1BsWFwPv6L7kngpmeFwlIewsGGgb+6bVVs/tod79LHWNXKY1eajN6JVcLuD5b+HiMLp5+xAubkcfwg+NUW4HVRV5tDRwceJGO56d4DvICkAcPKqpcBjYxdf01rH6USRP6mlo/rWBXVyjSihg+JbdIou5+hDyNMwEfAEE97DQG9BVGH0I0WOcR0CArBY32vHsgozSPZJxDrCOVejz3jomX4gUQWpqdl8Z2Ma+kZwEIu4uYW2XDUKgj7eFGPoQvnhZ06ngCp2ZxX0Ip0yZyl0MHJVJhJ6/pwyMs9eodKjYW2Ux5lcVI7tPRAqm/9AY6HPF1Pu3TMTf7JJcpuZa+iKAi/O2EDt56hRr/CL0JnQVFvch5OnaC8ChrKhjTwEZ2a84c5Ln0NQ7mdQNPPaKhCQNA/cKE6/fWig0vHKhMaLkl0GOhbiYmLQoUbRZA6gRiUNCb0ZXYbR3EwuItOssBoLKgjr2FIhdI4qavVKhpG6b0HVFkaq2rZeR89QmHq7mtAkKEKAQGS/BcESHJKE3pKswYCLw+ikKdezZWbTGWzeuSl8bM1FnIhjvulZjnzcs/tBQm6CsSsOko7S1VaziobQs7+5C7yOj2APPGqevq2oX6thTQewcVtCs1sDZ62c68pampt2fRZ2V+uo55kim7orZOmAZDQ0Xrgeikrv2GgwNLyIr/+xmz5aRy7Q6FS2bKaKuQKjWqGsT9ao5bSIubypEFXkld801cIssZmemubOEM6ZtEfhQXdf2B1FXIzV9+wUDXKY3+8XQqMR+zNpWvV1K/rDXwCO6nOGoJPPGG1Y/VNOyiRR1ZULMRMts1D0T70UtCEoqDQnMU2qUTnAgOwu7RZawM9GSYJh4LiRNo2GnhYhtyI16qlsa6FgFP4FvullV6YOSpyubdQ0r+cNYA9eIzfX4KZ/mrlJLCe0C+5n4X/9Z3UxF9L6Sio7dOIMhsTWShSEaYbtGraChEUpj/kMyvge3aGOgoMIS0rUKfdlLy8Zb9KFQH60hvnALS6b1SrqHURZSnrW5lCzMGrhHlbK9tfBrzl37NtjnBY0x4nnPvoN8RR8q/aJtZaFtEfjIxKt5G+U3F3EOOY/dqJByqEqW0xpEb2F7iL1sba8RBVcf4PWoh5qhhdDns9NQbx2bIbqWwU8btqVujlFHFbnFrlIih5Us/Bq4RhaTXWAemfs2roHbVGMspH7GPk9+VulvLfR57LSkom33rYaR50FDx8l1LcVRxGzul87gBkrN0jk1hW1gbpPC0M3FMfRso+tUdewO9tQ0/Fro89flDHody+AngzwXtrHI9T1NYOihCqQytqJ4ofCILmdrjz3AXrS1X8Ye80jT2PdJTzXTGKHPWZcn4Lyk1SpMs/ikso1CPvLQ8MIOLXin5C31AhFTzrxPCPaixi0Cv23tC/ZO3zamTlXHXqkt5EUquvYTtcxG3hvAUn/bFhamXYankKV/Fgs+QfWjo5DyoPNqiDK2dlhDrCXWVJq1xx71d5hIGkae9/pomEpX+1ZJHUMaGlZGGkbeVfqIq7Rh3EsKDEqpohcjanwxLaOEvDS6LmFNHILz2RpZcQkEAnpJiFvUqOo6VampGRkpz3snERZNY+8q5MtLY7O0FHdBkBLt51zGFnwQ8Rf0yAB8HDEJFDpoLS5h2oZNoWcdVqOq51TVU93YQOjzoKQ2CI1JoV10B4e/kizEzcN4c1qMSGe+e8AghgStJsfgfJbfggIBnV4AIkrYXDFnzB22mbX/MvadeLSCqQQPdJtJWhZBr1T1nKt6qRkHKg9kFya0l1PVs5/Vz9jvuqF9XC0CUbIejCYOAd80pnms/bPZ4cOVBHEah+C15BS6npzDNrHrilvkZnZYAcTziC5lLP39v/7vMbb+Mzazz4RNgGfgWXgmnl0vANlk6ZfRbAEDWdkYGsImsla9v/v1XppWs7p3795N6H1VkhxJRdtKXU3XcaWmsd91PZuoNwNdE6k1fJg8GR4guEYbs+xv9/YwcE9wgOhYhrzR6O9xvbeWzcpfNEzVlYdRSaLe/ayGqOq7bNEyDXigbxtTgyJ5iO4KcVAVwdCk/R0nk551eI2m8fD7Kjp25b36miij2EriIzVNq36qukMW9O3vuq/foBG3da3HvjR0mFA70HU2g2ALfdBb1AZei2jA0JkoYlCrYx70UnPA8Ntqeo77+mhazv9FW6kVlKQgUtM2+7639mAvVS27+Wr6TiV9jdyPaw4cfl3LbNRjwLThhjawn1hn6DCxzshlKvKnaaD7LDJ2m0PwuDWnpfAz/A75/QPdZhEb55xAhvYT6gzs4uv0baNrdCyCX2qZBjzWGOB1va/h0OOqunYlKtpWc1X6Wrr3ULH4VnkARO2m/w+Slf8tX704fgAAAABJRU5ErkJggg==;whiteSpace=wrap;html=1;rounded=0;glass=0;treeMoving=0;treeFolding=0;align=center;" parent="dNxyNK7c78bLwvsdeMH5-11" vertex="1">
                        <mxGeometry x="350" y="60" width="121" height="60" as="geometry"/>
                    </mxCell>
                </UserObject>
                <UserObject label="code-server&lt;font style=&quot;font-size: 6px&quot;&gt;&lt;br&gt;&lt;/font&gt;&lt;font style=&quot;font-size: 10px&quot;&gt;&lt;br&gt;php8&lt;br&gt;psalm + php-cs-fixer&lt;br&gt;&lt;/font&gt;&lt;br&gt;&lt;font style=&quot;font-size: 10px&quot;&gt;settings.json,&amp;nbsp;tasks.json,&lt;br&gt;keybindings.json,&amp;nbsp;launch.json&lt;/font&gt;" placeholders="1" id="dNxyNK7c78bLwvsdeMH5-16">
                    <mxCell style="label;image=data:image/svg+xml,PHN2ZyB4bWxucz0iaHR0cDovL3d3dy53My5vcmcvMjAwMC9zdmciIHZpZXdCb3g9IjAgMCAyNTYgMjU2IiBmaWxsPSJub25lIj4mI3hhOzxtYXNrIGlkPSJtYXNrMCIgbWFzay10eXBlPSJhbHBoYSIgbWFza1VuaXRzPSJ1c2VyU3BhY2VPblVzZSIgeD0iMCIgeT0iMCIgd2lkdGg9IjI1NiIgaGVpZ2h0PSIyNTYiPiYjeGE7PHBhdGggZmlsbC1ydWxlPSJldmVub2RkIiBjbGlwLXJ1bGU9ImV2ZW5vZGQiIGQ9Ik0xODEuNTM0IDI1NC4yNTJDMTg1LjU2NiAyNTUuODIzIDE5MC4xNjQgMjU1LjcyMiAxOTQuMjM0IDI1My43NjRMMjQ2Ljk0IDIyOC40MDNDMjUyLjQ3OCAyMjUuNzM4IDI1NiAyMjAuMTMyIDI1NiAyMTMuOTgzVjQyLjAxODFDMjU2IDM1Ljg2ODkgMjUyLjQ3OCAzMC4yNjM4IDI0Ni45NCAyNy41OTg4TDE5NC4yMzQgMi4yMzY4MUMxODguODkzIC0wLjMzMzEzMiAxODIuNjQyIDAuMjk2MzQ0IDE3Ny45NTUgMy43MDQxOEMxNzcuMjg1IDQuMTkxIDE3Ni42NDcgNC43MzQ1NCAxNzYuMDQ5IDUuMzMzNTRMNzUuMTQ5IDk3LjM4NjJMMzEuMTk5MiA2NC4wMjQ3QzI3LjEwNzkgNjAuOTE5MSAyMS4zODUzIDYxLjE3MzUgMTcuNTg1NSA2NC42M0wzLjQ4OTM2IDc3LjQ1MjVDLTEuMTU4NTMgODEuNjgwNSAtMS4xNjM4NiA4OC45OTI2IDMuNDc3ODUgOTMuMjI3NEw0MS41OTI2IDEyOEwzLjQ3Nzg1IDE2Mi43NzNDLTEuMTYzODYgMTY3LjAwOCAtMS4xNTg1MyAxNzQuMzIgMy40ODkzNiAxNzguNTQ4TDE3LjU4NTUgMTkxLjM3QzIxLjM4NTMgMTk0LjgyNyAyNy4xMDc5IDE5NS4wODEgMzEuMTk5MiAxOTEuOTc2TDc1LjE0OSAxNTguNjE0TDE3Ni4wNDkgMjUwLjY2N0MxNzcuNjQ1IDI1Mi4yNjQgMTc5LjUxOSAyNTMuNDY3IDE4MS41MzQgMjU0LjI1MlpNMTkyLjAzOSA2OS44ODUzTDExNS40NzkgMTI4TDE5Mi4wMzkgMTg2LjExNVY2OS44ODUzWiIgZmlsbD0id2hpdGUiLz4mI3hhOzwvbWFzaz4mI3hhOzxnIG1hc2s9InVybCgjbWFzazApIj4mI3hhOzxwYXRoIGQ9Ik0yNDYuOTQgMjcuNjM4M0wxOTQuMTkzIDIuMjQxMzhDMTg4LjA4OCAtMC42OTgzMDIgMTgwLjc5MSAwLjU0MTcyMSAxNzUuOTk5IDUuMzMzMzJMMy4zMjM3MSAxNjIuNzczQy0xLjMyMDgyIDE2Ny4wMDggLTEuMzE1NDggMTc0LjMyIDMuMzM1MjMgMTc4LjU0OEwxNy40Mzk5IDE5MS4zN0MyMS4yNDIxIDE5NC44MjcgMjYuOTY4MiAxOTUuMDgxIDMxLjA2MTkgMTkxLjk3NkwyMzkuMDAzIDM0LjIyNjlDMjQ1Ljk3OSAyOC45MzQ3IDI1NS45OTkgMzMuOTEwMyAyNTUuOTk5IDQyLjY2NjdWNDIuMDU0M0MyNTUuOTk5IDM1LjkwNzggMjUyLjQ3OCAzMC4zMDQ3IDI0Ni45NCAyNy42MzgzWiIgZmlsbD0iIzAwNjVBOSIvPiYjeGE7PGcgZmlsdGVyPSJ1cmwoI2ZpbHRlcjBfZCkiPiYjeGE7PHBhdGggZD0iTTI0Ni45NCAyMjguMzYyTDE5NC4xOTMgMjUzLjc1OUMxODguMDg4IDI1Ni42OTggMTgwLjc5MSAyNTUuNDU4IDE3NS45OTkgMjUwLjY2N0wzLjMyMzcxIDkzLjIyNzJDLTEuMzIwODIgODguOTkyNSAtMS4zMTU0OCA4MS42ODAyIDMuMzM1MjMgNzcuNDUyM0wxNy40Mzk5IDY0LjYyOThDMjEuMjQyMSA2MS4xNzMzIDI2Ljk2ODIgNjAuOTE4OCAzMS4wNjE5IDY0LjAyNDVMMjM5LjAwMyAyMjEuNzczQzI0NS45NzkgMjI3LjA2NSAyNTUuOTk5IDIyMi4wOSAyNTUuOTk5IDIxMy4zMzNWMjEzLjk0NkMyNTUuOTk5IDIyMC4wOTIgMjUyLjQ3OCAyMjUuNjk1IDI0Ni45NCAyMjguMzYyWiIgZmlsbD0iIzAwN0FDQyIvPiYjeGE7PC9nPiYjeGE7PGcgZmlsdGVyPSJ1cmwoI2ZpbHRlcjFfZCkiPiYjeGE7PHBhdGggZD0iTTE5NC4xOTYgMjUzLjc2M0MxODguMDg5IDI1Ni43IDE4MC43OTIgMjU1LjQ1OSAxNzYgMjUwLjY2N0MxODEuOTA0IDI1Ni41NzEgMTkyIDI1Mi4zODkgMTkyIDI0NC4wMzlWMTEuOTYwNkMxOTIgMy42MTA1NyAxODEuOTA0IC0wLjU3MTE3NSAxNzYgNS4zMzMyMUMxODAuNzkyIDAuNTQxMTY2IDE4OC4wODkgLTAuNzAwNjA3IDE5NC4xOTYgMi4yMzY0OEwyNDYuOTM0IDI3LjU5ODVDMjUyLjQ3NiAzMC4yNjM1IDI1NiAzNS44Njg2IDI1NiA0Mi4wMTc4VjIxMy45ODNDMjU2IDIyMC4xMzIgMjUyLjQ3NiAyMjUuNzM3IDI0Ni45MzQgMjI4LjQwMkwxOTQuMTk2IDI1My43NjNaIiBmaWxsPSIjMUY5Q0YwIi8+JiN4YTs8L2c+JiN4YTs8ZyBzdHlsZT0ibWl4LWJsZW5kLW1vZGU6b3ZlcmxheSIgb3BhY2l0eT0iMC4yNSI+JiN4YTs8cGF0aCBmaWxsLXJ1bGU9ImV2ZW5vZGQiIGNsaXAtcnVsZT0iZXZlbm9kZCIgZD0iTTE4MS4zNzggMjU0LjI1MkMxODUuNDEgMjU1LjgyMiAxOTAuMDA4IDI1NS43MjIgMTk0LjA3NyAyNTMuNzY0TDI0Ni43ODMgMjI4LjQwMkMyNTIuMzIyIDIyNS43MzcgMjU1Ljg0NCAyMjAuMTMyIDI1NS44NDQgMjEzLjk4M1Y0Mi4wMTc5QzI1NS44NDQgMzUuODY4NyAyNTIuMzIyIDMwLjI2MzYgMjQ2Ljc4NCAyNy41OTg2TDE5NC4wNzcgMi4yMzY2NUMxODguNzM3IC0wLjMzMzI5OSAxODIuNDg2IDAuMjk2MTc3IDE3Ny43OTggMy43MDQwMUMxNzcuMTI5IDQuMTkwODMgMTc2LjQ5MSA0LjczNDM3IDE3NS44OTIgNS4zMzMzN0w3NC45OTI3IDk3LjM4NkwzMS4wNDI5IDY0LjAyNDVDMjYuOTUxNyA2MC45MTg5IDIxLjIyOSA2MS4xNzM0IDE3LjQyOTIgNjQuNjI5OEwzLjMzMzExIDc3LjQ1MjNDLTEuMzE0NzggODEuNjgwMyAtMS4zMjAxMSA4OC45OTI1IDMuMzIxNiA5My4yMjczTDQxLjQzNjQgMTI4TDMuMzIxNiAxNjIuNzczQy0xLjMyMDExIDE2Ny4wMDggLTEuMzE0NzggMTc0LjMyIDMuMzMzMTEgMTc4LjU0OEwxNy40MjkyIDE5MS4zN0MyMS4yMjkgMTk0LjgyNyAyNi45NTE3IDE5NS4wODEgMzEuMDQyOSAxOTEuOTc2TDc0Ljk5MjcgMTU4LjYxNEwxNzUuODkyIDI1MC42NjdDMTc3LjQ4OCAyNTIuMjY0IDE3OS4zNjMgMjUzLjQ2NyAxODEuMzc4IDI1NC4yNTJaTTE5MS44ODMgNjkuODg1MUwxMTUuMzIzIDEyOEwxOTEuODgzIDE4Ni4xMTVWNjkuODg1MVoiIGZpbGw9InVybCgjcGFpbnQwX2xpbmVhcikiLz4mI3hhOzwvZz4mI3hhOzwvZz4mI3hhOzxkZWZzPiYjeGE7PGZpbHRlciBpZD0iZmlsdGVyMF9kIiB4PSItMjEuNDg5NiIgeT0iNDAuNTIyNSIgd2lkdGg9IjI5OC44MjIiIGhlaWdodD0iMjM2LjE0OSIgZmlsdGVyVW5pdHM9InVzZXJTcGFjZU9uVXNlIiBjb2xvci1pbnRlcnBvbGF0aW9uLWZpbHRlcnM9InNSR0IiPiYjeGE7PGZlRmxvb2QgZmxvb2Qtb3BhY2l0eT0iMCIgcmVzdWx0PSJCYWNrZ3JvdW5kSW1hZ2VGaXgiLz4mI3hhOzxmZUNvbG9yTWF0cml4IGluPSJTb3VyY2VBbHBoYSIgdHlwZT0ibWF0cml4IiB2YWx1ZXM9IjAgMCAwIDAgMCAwIDAgMCAwIDAgMCAwIDAgMCAwIDAgMCAwIDEyNyAwIi8+JiN4YTs8ZmVPZmZzZXQvPiYjeGE7PGZlR2F1c3NpYW5CbHVyIHN0ZERldmlhdGlvbj0iMTAuNjY2NyIvPiYjeGE7PGZlQ29sb3JNYXRyaXggdHlwZT0ibWF0cml4IiB2YWx1ZXM9IjAgMCAwIDAgMCAwIDAgMCAwIDAgMCAwIDAgMCAwIDAgMCAwIDAuMjUgMCIvPiYjeGE7PGZlQmxlbmQgbW9kZT0ib3ZlcmxheSIgaW4yPSJCYWNrZ3JvdW5kSW1hZ2VGaXgiIHJlc3VsdD0iZWZmZWN0MV9kcm9wU2hhZG93Ii8+JiN4YTs8ZmVCbGVuZCBtb2RlPSJub3JtYWwiIGluPSJTb3VyY2VHcmFwaGljIiBpbjI9ImVmZmVjdDFfZHJvcFNoYWRvdyIgcmVzdWx0PSJzaGFwZSIvPiYjeGE7PC9maWx0ZXI+JiN4YTs8ZmlsdGVyIGlkPSJmaWx0ZXIxX2QiIHg9IjE1NC42NjciIHk9Ii0yMC42NzM1IiB3aWR0aD0iMTIyLjY2NyIgaGVpZ2h0PSIyOTcuMzQ3IiBmaWx0ZXJVbml0cz0idXNlclNwYWNlT25Vc2UiIGNvbG9yLWludGVycG9sYXRpb24tZmlsdGVycz0ic1JHQiI+JiN4YTs8ZmVGbG9vZCBmbG9vZC1vcGFjaXR5PSIwIiByZXN1bHQ9IkJhY2tncm91bmRJbWFnZUZpeCIvPiYjeGE7PGZlQ29sb3JNYXRyaXggaW49IlNvdXJjZUFscGhhIiB0eXBlPSJtYXRyaXgiIHZhbHVlcz0iMCAwIDAgMCAwIDAgMCAwIDAgMCAwIDAgMCAwIDAgMCAwIDAgMTI3IDAiLz4mI3hhOzxmZU9mZnNldC8+JiN4YTs8ZmVHYXVzc2lhbkJsdXIgc3RkRGV2aWF0aW9uPSIxMC42NjY3Ii8+JiN4YTs8ZmVDb2xvck1hdHJpeCB0eXBlPSJtYXRyaXgiIHZhbHVlcz0iMCAwIDAgMCAwIDAgMCAwIDAgMCAwIDAgMCAwIDAgMCAwIDAgMC4yNSAwIi8+JiN4YTs8ZmVCbGVuZCBtb2RlPSJvdmVybGF5IiBpbjI9IkJhY2tncm91bmRJbWFnZUZpeCIgcmVzdWx0PSJlZmZlY3QxX2Ryb3BTaGFkb3ciLz4mI3hhOzxmZUJsZW5kIG1vZGU9Im5vcm1hbCIgaW49IlNvdXJjZUdyYXBoaWMiIGluMj0iZWZmZWN0MV9kcm9wU2hhZG93IiByZXN1bHQ9InNoYXBlIi8+JiN4YTs8L2ZpbHRlcj4mI3hhOzxsaW5lYXJHcmFkaWVudCBpZD0icGFpbnQwX2xpbmVhciIgeDE9IjEyNy44NDQiIHkxPSIwLjY1OTk4OCIgeDI9IjEyNy44NDQiIHkyPSIyNTUuMzQiIGdyYWRpZW50VW5pdHM9InVzZXJTcGFjZU9uVXNlIj4mI3hhOzxzdG9wIHN0b3AtY29sb3I9IndoaXRlIi8+JiN4YTs8c3RvcCBvZmZzZXQ9IjEiIHN0b3AtY29sb3I9IndoaXRlIiBzdG9wLW9wYWNpdHk9IjAiLz4mI3hhOzwvbGluZWFyR3JhZGllbnQ+JiN4YTs8L2RlZnM+JiN4YTs8L3N2Zz4=;whiteSpace=wrap;html=1;rounded=0;glass=0;treeFolding=0;treeMoving=0;align=center;" parent="dNxyNK7c78bLwvsdeMH5-11" vertex="1">
                        <mxGeometry x="10" y="40" width="210" height="100" as="geometry"/>
                    </mxCell>
                </UserObject>
                <UserObject label="nginx" placeholders="1" id="dNxyNK7c78bLwvsdeMH5-18">
                    <mxCell style="label;image=data:image/svg+xml,PHN2ZyB4bWxucz0iaHR0cDovL3d3dy53My5vcmcvMjAwMC9zdmciIGlkPSJMYXllcl8xIiBkYXRhLW5hbWU9IkxheWVyIDEiIHZpZXdCb3g9IjAgMCA2My4zNiA3My40NCI+PGRlZnM+PHN0eWxlPi5jbHMtMXtmaWxsOiMwMDk2Mzk7fS5jbHMtMntmaWxsOiNmZmY7fS5jbHMtM3tmaWxsOiM5OTk7fTwvc3R5bGU+PC9kZWZzPjx0aXRsZT5OR0lOWC1oZXgtc291cmNlLVJHQi0wMjwvdGl0bGU+PHBhdGggY2xhc3M9ImNscy0xIiBkPSJNLjUwMjcyLDU0LjcyMWEzLjYzNywzLjYzNywwLDAsMCwxLjM2NjQxLDEuMzU1OTNMMjkuODIxOTIsNzIuMjE1NDlsLjAwMDg3LS4wMDA4N2EzLjY2NzkzLDMuNjY3OTMsMCwwLDAsMy43MTUyOSwwTDYxLjQ5MTc1LDU2LjA3NjA2YTMuNjY1NjgsMy42NjU2OCwwLDAsMCwxLjg1Njc3LTMuMjE2MTlWMjAuNTgyNzVsLS4wMDA4Ny0uMDAwODdBMy42NjY4NSwzLjY2Njg1LDAsMCwwLDYxLjQ5LDE3LjM2NDgxTDMzLjUzNjM0LDEuMjI2MjVWMS4yMjUzOGEzLjY2MzEzLDMuNjYzMTMsMCwwLDAtMy43MTI2OCwwdi4wMDA4N0wxLjg3MDg3LDE3LjM2NDgxQTMuNjY1MywzLjY2NTMsMCwwLDAsLjAxMjM1LDIwLjU4MTg4bC0uMDAwODcuMDAwODdWNTIuODU5ODdBMy42NDQyNiwzLjY0NDI2LDAsMCwwLC41MDE4NSw1NC43MjEiLz48cGF0aCBjbGFzcz0iY2xzLTIiIGQ9Ik0yMi43MzAxNSw0OS4wMDhhMy41OTQ4OCwzLjU5NDg4LDAsMCwxLTcuMTg5NzYsMGwuMDAwODguMDAwODguMDAzNDktMjQuNjc3MjdjMC0xLjkxMTc0LDEuNjg5MjQtMy40OTI3OSw0LjA4MTc1LTMuNDkyNzlhNi4zOTI4Miw2LjM5MjgyLDAsMCwxLDQuOTAwMjEsMi4xOTFMMjUuNjEzLDI0LjMyOTg5LDQwLjYzMTI0LDQyLjMwMjUzVjI0LjQzMkg0MC42Mjk1YTMuNTk0ODgsMy41OTQ4OCwwLDAsMSw3LjE4OTc1LDBoLS4wMDA4N2wtLjAwMzQ5LDI0LjY3NTUyYzAsMS45MTE3NS0xLjY5MDExLDMuNDkyNzktNC4wODE3NSwzLjQ5Mjc5YTYuMzg4NTcsNi4zODg1NywwLDAsMS00LjkwMDIxLTIuMTkxTDIyLjcyODQsMzEuMTM2NTlWNDkuMDA4OVoiLz48cGF0aCBjbGFzcz0iY2xzLTMiIGQ9Ik01OS45NzQ3OCw2Ni4wMzQxaC40NTkzNFY2NS4wMTFoLjM2MzM1YTEuMDM2NzQsMS4wMzY3NCwwLDAsMSwuNTEwMzcuMDg1MjIuNjM5MTcuNjM5MTcsMCwwLDEsLjI0MjU1LjU5NTEzdi4yMDk3NmwuMDEwMjkuMDc4MmEuMTU3ODEuMTU3ODEsMCwwLDEsLjAwNy4wMzI3OGMuMDAyMzQuMDEyNjQuMDAzMjguMDE2MzguMDEwMy4wMjJoLjQyNTYzbC0uMDE1NDYtLjAyOWEuMjk4NjMuMjk4NjMsMCwwLDEtLjAyMDYtLjEzM2MtLjAwNjA5LS4wNzM1MS0uMDA2MDktLjEzNjI1LS4wMDYwOS0uMTk0MzF2LS4xOTM4NWEuNzQxOTQuNzQxOTQsMCwwLDAtLjE0MjM0LS40MDU0OS42NjEyOS42NjEyOSwwLDAsMC0uNDUzMjUtLjI1NDcyLDEuMTE4ODQsMS4xMTg4NCwwLDAsMCwuMzc3ODctLjEyMjY4LjU2NjczLjU2NjczLDAsMCwwLC4yNTM3OC0uNTE1MDUuNjQwMDguNjQwMDgsMCwwLDAtLjQwMTc0LS42NjA2OCwxLjk5OTA2LDEuOTk5MDYsMCwwLDAtLjcxMjE5LS4wOTMxOGgtLjkwODg0Wm0xLjMwNjM3LTEuNDAyODJhMS4xODgyLDEuMTg4MiwwLDAsMS0uNDM2ODYuMDU4MDZoLS40MTAxN1Y2My43NDIxaC4zOTE0NGExLjE1NTUsMS4xNTU1LDAsMCwxLC41NTIuMTAxNjEuMzk0MTMuMzk0MTMsMCwwLDEsLjE3Mjc4LjM3OTc0LjQwMDg3LjQwMDg3LDAsMCwxLS4yNjkyNC40MDc4M20xLjMzNC0xLjU2MzlhMi4zMDc5MiwyLjMwNzkyLDAsMCwwLTEuNjg3LS42ODk3MSwyLjM3MywyLjM3MywwLDAsMCwwLDQuNzQ2LDIuMzc3MjQsMi4zNzcyNCwwLDAsMCwxLjY4Ny00LjA1NjNtLS4yNDExNC4yMzU1MmExLjk0MzU5LDEuOTQzNTksMCwwLDEsLjU5NTU5LDEuNDQzNTYsMi4wMzkyMiwyLjAzOTIyLDAsMCwxLTMuNDg1NTIsMS40NTA1OSwyLjAxMzExLDIuMDEzMTEsMCwwLDEtLjU5Mjc5LTEuNDUwNTlBMi4wNDYyNywyLjA0NjI3LDAsMCwxLDYwLjkyODEsNjIuNjk3YTEuOTQ2LDEuOTQ2LDAsMCwxLDEuNDQ1OTEuNjA1ODkiLz48L3N2Zz4=;whiteSpace=wrap;html=1;rounded=0;glass=0;align=center;" parent="dNxyNK7c78bLwvsdeMH5-11" vertex="1">
                        <mxGeometry x="570" y="60" width="100" height="60" as="geometry"/>
                    </mxCell>
                </UserObject>
                <mxCell id="nrITKkSTMbPHJfI5Osgz-9" value="" style="endArrow=classic;html=1;entryX=1;entryY=0.5;entryDx=0;entryDy=0;exitX=0;exitY=0.5;exitDx=0;exitDy=0;" parent="dNxyNK7c78bLwvsdeMH5-11" source="dNxyNK7c78bLwvsdeMH5-12" target="dNxyNK7c78bLwvsdeMH5-16" edge="1">
                    <mxGeometry width="50" height="50" relative="1" as="geometry">
                        <mxPoint x="2" y="360" as="sourcePoint"/>
                        <mxPoint x="52" y="310" as="targetPoint"/>
                    </mxGeometry>
                </mxCell>
                <mxCell id="nrITKkSTMbPHJfI5Osgz-10" value="xdebug session&lt;br&gt;port 9003" style="text;html=1;align=center;verticalAlign=middle;resizable=0;points=[];labelBackgroundColor=#ffffff;" parent="nrITKkSTMbPHJfI5Osgz-9" vertex="1" connectable="0">
                    <mxGeometry x="-0.0956" y="-2" relative="1" as="geometry">
                        <mxPoint as="offset"/>
                    </mxGeometry>
                </mxCell>
                <mxCell id="nrITKkSTMbPHJfI5Osgz-11" value="" style="endArrow=classic;html=1;entryX=1;entryY=0.5;entryDx=0;entryDy=0;exitX=0;exitY=0.5;exitDx=0;exitDy=0;" parent="dNxyNK7c78bLwvsdeMH5-11" source="dNxyNK7c78bLwvsdeMH5-18" target="dNxyNK7c78bLwvsdeMH5-12" edge="1">
                    <mxGeometry width="50" height="50" relative="1" as="geometry">
                        <mxPoint y="360" as="sourcePoint"/>
                        <mxPoint x="50" y="310" as="targetPoint"/>
                    </mxGeometry>
                </mxCell>
                <mxCell id="nrITKkSTMbPHJfI5Osgz-12" value="fcgi&lt;br&gt;port 9000" style="text;html=1;align=center;verticalAlign=middle;resizable=0;points=[];labelBackgroundColor=#ffffff;" parent="nrITKkSTMbPHJfI5Osgz-11" vertex="1" connectable="0">
                    <mxGeometry x="-0.3695" y="-1" relative="1" as="geometry">
                        <mxPoint x="-15" as="offset"/>
                    </mxGeometry>
                </mxCell>
                <mxCell id="nrITKkSTMbPHJfI5Osgz-14" value="" style="endArrow=classic;html=1;exitX=1;exitY=0.5;exitDx=0;exitDy=0;entryX=0.5;entryY=0;entryDx=0;entryDy=0;" parent="1" source="nrITKkSTMbPHJfI5Osgz-22" target="dNxyNK7c78bLwvsdeMH5-18" edge="1">
                    <mxGeometry width="50" height="50" relative="1" as="geometry">
                        <mxPoint x="540" y="39" as="sourcePoint"/>
                        <mxPoint x="710" y="60" as="targetPoint"/>
                    </mxGeometry>
                </mxCell>
                <mxCell id="nrITKkSTMbPHJfI5Osgz-15" value="http://127.0.0.1:8080/service&lt;br&gt;port 8080" style="text;html=1;align=center;verticalAlign=middle;resizable=0;points=[];labelBackgroundColor=#ffffff;" parent="nrITKkSTMbPHJfI5Osgz-14" vertex="1" connectable="0">
                    <mxGeometry x="-0.1768" y="-1" relative="1" as="geometry">
                        <mxPoint x="-1" y="-4" as="offset"/>
                    </mxGeometry>
                </mxCell>
                <mxCell id="nrITKkSTMbPHJfI5Osgz-16" value="" style="endArrow=classic;html=1;entryX=0.5;entryY=0;entryDx=0;entryDy=0;exitX=0;exitY=0.5;exitDx=0;exitDy=0;" parent="1" source="nrITKkSTMbPHJfI5Osgz-22" target="dNxyNK7c78bLwvsdeMH5-16" edge="1">
                    <mxGeometry width="50" height="50" relative="1" as="geometry">
                        <mxPoint x="50" y="470" as="sourcePoint"/>
                        <mxPoint x="100" y="420" as="targetPoint"/>
                    </mxGeometry>
                </mxCell>
                <mxCell id="nrITKkSTMbPHJfI5Osgz-17" value="http://127.0.0.1:8000/?folder=/var/www&lt;br&gt;port 8000" style="text;html=1;align=center;verticalAlign=middle;resizable=0;points=[];labelBackgroundColor=#ffffff;" parent="nrITKkSTMbPHJfI5Osgz-16" vertex="1" connectable="0">
                    <mxGeometry x="-0.1311" y="2" relative="1" as="geometry">
                        <mxPoint as="offset"/>
                    </mxGeometry>
                </mxCell>
                <mxCell id="nrITKkSTMbPHJfI5Osgz-5" value="" style="endArrow=classic;html=1;entryX=0.5;entryY=1;entryDx=0;entryDy=0;exitX=0;exitY=0.5;exitDx=0;exitDy=0;" parent="1" source="nrITKkSTMbPHJfI5Osgz-21" target="dNxyNK7c78bLwvsdeMH5-16" edge="1">
                    <mxGeometry width="50" height="50" relative="1" as="geometry">
                        <mxPoint x="50" y="470" as="sourcePoint"/>
                        <mxPoint x="100" y="420" as="targetPoint"/>
                    </mxGeometry>
                </mxCell>
                <mxCell id="nrITKkSTMbPHJfI5Osgz-6" value="/var/www + configs" style="text;html=1;align=center;verticalAlign=middle;resizable=0;points=[];labelBackgroundColor=#ffffff;" parent="nrITKkSTMbPHJfI5Osgz-5" vertex="1" connectable="0">
                    <mxGeometry x="-0.149" y="-1" relative="1" as="geometry">
                        <mxPoint y="0.73" as="offset"/>
                    </mxGeometry>
                </mxCell>
                <mxCell id="nrITKkSTMbPHJfI5Osgz-7" value="" style="endArrow=classic;html=1;entryX=0.5;entryY=1;entryDx=0;entryDy=0;exitX=0.5;exitY=0;exitDx=0;exitDy=0;" parent="1" source="nrITKkSTMbPHJfI5Osgz-21" target="dNxyNK7c78bLwvsdeMH5-12" edge="1">
                    <mxGeometry width="50" height="50" relative="1" as="geometry">
                        <mxPoint x="50" y="470" as="sourcePoint"/>
                        <mxPoint x="100" y="420" as="targetPoint"/>
                    </mxGeometry>
                </mxCell>
                <mxCell id="nrITKkSTMbPHJfI5Osgz-8" value="/var/www + configs" style="text;html=1;align=center;verticalAlign=middle;resizable=0;points=[];labelBackgroundColor=#ffffff;" parent="nrITKkSTMbPHJfI5Osgz-7" vertex="1" connectable="0">
                    <mxGeometry x="0.2145" relative="1" as="geometry">
                        <mxPoint x="-24.44" y="22.34" as="offset"/>
                    </mxGeometry>
                </mxCell>
                <UserObject label="git&lt;br&gt;&lt;br&gt;&lt;font style=&quot;font-size: 10px&quot;&gt;source-code&lt;/font&gt;" placeholders="1" id="nrITKkSTMbPHJfI5Osgz-21">
                    <mxCell style="label;image=data:image/png,iVBORw0KGgoAAAANSUhEUgAAAMgAAADICAMAAACahl6sAAACLlBMVEX//////v781s75nov1c1jzWDXzXT32hGz6saP+8/H+5N72g2rzTynzWzn6qpr7xbrzVDD2emD+9PL7wLT0aEr97er0YkL96uf7wrf96+j7wbb0Zkf+7uv7v7T0ZEX97On0ZUf0ZEb0YUH0Y0T92tP4kn34l4P4lYH4mIT6sKH4m4n4loL5ppX7wbX5o5LzYED7w7j5pJP5pZT1blL3iXL5opD6q5v5nIr3hm394Nr/+/r81Mz4lYDzUCr+7+z3hm76s6T7xbv6rJz2e2H+4937yb/+5uL7x7z2fmX0VTH5oY/1b1P7tKX6vrP3kHr5oI/1bVD2fWT+6OXzUi70VzT7xrz7tKb+9fP3h3D6qJf92ND3iHH8zsT3iHL+7+38zMP+9/bzXDv6tqf0ak70aEv7taf6tqj0bFD0aUv5ppb6vbH//v3919D6qZj1dFn1dVr7yL76uKv0Zkj+9/XzUCv3jnj2fGL/+vnzWTb6r6D929T3jXf+8vD6uav1b1T81c32gGf+9vX5p5f0VjL2gWj7ycD6u6/6saL5nozzUiz1cVb+6eX+4tz3j3r1dVzzUy/4k378zML80Mj4kXzzWTf80Mf+5eH1eF3+5uD4mYX80sr94dv6r5/2f2b8z8b80cjzWjj94dz2gWn8y8H92dH8zsX4lH/+9fT7ysD4mYbzXz72eV/6uqz3jHb1clfzUSv6uq71cVX3inT80sn++Pf1cFTzXz/6rp/+8e/6uKqVb0Y8AAAF9UlEQVR4AezBAQEAEAAAIAD/F/MCVGGJ4VwAAACkXGqtrY/Zzjkw15aEUfQbxF+cnBvz2bZt27Zt2zbGfhrPrxvH3bXTt1O7ql/d9Q9Wda/a55wgTUImPUPryMyScMnO0Ubk5kmg5GtTCgpD96gjikmAFGlLomIJjhI1UVomgVGuZioqA++DcLsI94pQPN9DtaosuD4sVFeG0geiJhbGfmBqi8PoA1NaGFwfhD0h9MHshO8RwDK2U0wQe5LWXjFh7EkHxYTRSUd1obYyQJPg3k86qQPsPUl0EthzV+cu0oSuge5JuWq396GT7qqqPXw66cnpBNBL/6W3pZNgzqS7/k+fsPekXNVi0imoje+ujejB2RPC+3mPUJ+7umszurnuCb8T0Ielkw4BnInhPALdk15qoMWetNe+/foPGDiowHVP+OcBOhks/zJk6LDhiikdwe/DSm8xkz7SoxPueQATGeW/J5w+oMlofifgPADdxMIYbieAfIX0EQtj+Z2A8wD0GCJGxrH3BPcBGC9mUrh7gu8VIGeCmJlIf48H+wGYJBbSJmtriCpZfQCmiI2p1PcT3AdgmtgYSX2Px30ApouNGdT3E9wHYBQ+Ecqe4D4AM8XGLOp7PO4DMFsszJlL/d6F+wDMyxMz8/nfhYEHYIGYWbhIXYgqaX1YiNxrJ3RSpO4sFhuWMyF0kq/xsERsLGV/7wIegKRx+EyovyNRonGStExsDKJ3AvYD0CMNnwnrdyTK1Ydk66Esd9uTQqIH+AyxYiWtE9yHO52ljlXDe/t0EsVo+wFEZLWu8eqkkHKvsMgHa1XX0DvB++Eusk5V14OnFdAJqw8soutJnYA+/EV0A+gE3C5WH1hE15M6AX34i+gCvz1h9YFFdE3LTmo3bsp06ITQBxIxdbJ5y+BVsnXFtu07HPaEcK+wiK4RM+N3OnRC8IAiul4sdHPohNCHVQSblLSZyS5liOgGsbBbMXv2CmTOPo6I/Uz2KyZXIAeUI2L/8nXwkGIOC+CI0kQ0VcwMUMy8VUBkIFHkqJg5lqOY40DkBFHkpFg4pZiRQCSJJ5J5WiycUUwBEDnLEznh9aX5LBDJ4YmcExvLFDMZiCTzRGaLjfOKiYDIJJ7IWrFxQTFjgchFnsjkFWLhkmIWA5G0yzQRPS8WrijmqgCyeCL7xcw1xVwXyA2ayE3L3bqlkMyFAllYRRGxP6OMU8wSEUwsYono7Th/6+aOtIriiCVydpy04K6DB6KwiiSi947E8Sdz96XVFFaTRHTfGmnMgwMOHsROsIjqw4lSx6P+OQ73itsJFlEteHzhydMj8589v6wOHsROsIg7LwSCTfgi7n2ATvgi4F4ROgEiHA9wu/gi4F4R9gSIMD1AJ3yRl4KBnfBFQB/8Tg63kcgL8abSq5PFDSKfcPqwE6vRuEn5tEHkM34fbdVJxefSmGekPuyUlWo8jD0mTfkik3Ov7FRWqDs3pAWDJ3t78DvJTJOWfMnrw0Klcye3xcRXhD5AJ1WOgYiRr+fR98Ozk2/EzLf8Prw6+W6ImBlK6ANRWautpp9YGLLavw/mnnQTG9/z75VPJz+IjVd8D59OysXGdf8+mHvyTGyk+PfB3JPHYqOAf698OnktForfkDwwsZ6K2TdHzLz174O7Jz3EzDteH5gRpQrJyRMTK/n3yreTH8XA1gp/D/qe7I7vD5J+Egy5k174X1Ey+/DoZLs0Ia8f/161USdjtzXKY3fU9h68PTm3O32riBzcNmAtfz+cOsFE765MTVbCnjPeTwgehDMheHDf4/l98M+Efx6oE74HYU/4HoQ94ffBPxPieeD3eIIHheJavgd/T/h98DohnAdhT/gehI2/IwQInTj0waSymnSvCHtC8KBQHBE9CJ0Q+iDsCeE8KBSWkjwIz12E/aAQ20Tog8LpE4R7ReHn1wQPCqveETwonJ7K74PRCeE8CJ3wPQidUPaD0MlLCZK9v3DuFaGT2dqIX4dKuPwWaR0df5eQ2fvH0XVJSdG5AY8kbMInQYIECRIkSJAgwV/P20TCUeNidAAAAABJRU5ErkJggg==;whiteSpace=wrap;html=1;rounded=0;glass=0;treeMoving=0;treeFolding=0;align=center;" parent="1" vertex="1">
                        <mxGeometry x="340" y="310" width="120" height="50" as="geometry"/>
                    </mxCell>
                </UserObject>
                <UserObject label="Browser" placeholders="1" id="nrITKkSTMbPHJfI5Osgz-22">
                    <mxCell style="label;image=data:image/svg+xml,PHN2ZyB4bWxuczpkYz0iaHR0cDovL3B1cmwub3JnL2RjL2VsZW1lbnRzLzEuMS8iIHhtbG5zOmNjPSJodHRwOi8vY3JlYXRpdmVjb21tb25zLm9yZy9ucyMiIHhtbG5zOnJkZj0iaHR0cDovL3d3dy53My5vcmcvMTk5OS8wMi8yMi1yZGYtc3ludGF4LW5zIyIgeG1sbnM6c3ZnPSJodHRwOi8vd3d3LnczLm9yZy8yMDAwL3N2ZyIgeG1sbnM9Imh0dHA6Ly93d3cudzMub3JnLzIwMDAvc3ZnIiBoZWlnaHQ9IjgxLjk2Njk4IiB3aWR0aD0iODcuNDE4NTY0IiBpZD0ic3ZnMTAwOCIgdmVyc2lvbj0iMS4xIiB2aWV3Qm94PSIwIDAgODcuNDE4NTY0IDgxLjk2Njk4Ij4mI3hhOyAgPG1ldGFkYXRhIGlkPSJtZXRhZGF0YTEwMTIiPiYjeGE7ICAgIDxyZGY6UkRGPiYjeGE7ICAgICAgPGNjOldvcmsgcmRmOmFib3V0PSIiPiYjeGE7ICAgICAgICA8ZGM6Zm9ybWF0PmltYWdlL3N2Zyt4bWw8L2RjOmZvcm1hdD4mI3hhOyAgICAgICAgPGRjOnR5cGUgcmRmOnJlc291cmNlPSJodHRwOi8vcHVybC5vcmcvZGMvZGNtaXR5cGUvU3RpbGxJbWFnZSIvPiYjeGE7ICAgICAgICA8ZGM6dGl0bGUvPiYjeGE7ICAgICAgPC9jYzpXb3JrPiYjeGE7ICAgIDwvcmRmOlJERj4mI3hhOyAgPC9tZXRhZGF0YT4mI3hhOyAgPGRlZnMgaWQ9ImRlZnM5NzgiPiYjeGE7ICAgIDxsaW5lYXJHcmFkaWVudCBncmFkaWVudFRyYW5zZm9ybT0idHJhbnNsYXRlKDMuNywtMC4wMDQwODU1KSIgZ3JhZGllbnRVbml0cz0idXNlclNwYWNlT25Vc2UiIHkyPSI3NC40NjgwMDIiIHgyPSI2LjQ0NyIgeTE9IjEyLjM5MyIgeDE9IjcwLjc4NjAwMyIgaWQ9ImEiPiYjeGE7ICAgICAgPHN0b3AgaWQ9InN0b3A4MzQiIHN0b3AtY29sb3I9IiNmZmY0NGYiIG9mZnNldD0iLjA0OCIvPiYjeGE7ICAgICAgPHN0b3AgaWQ9InN0b3A4MzYiIHN0b3AtY29sb3I9IiNmZmU4NDciIG9mZnNldD0iLjExMSIvPiYjeGE7ICAgICAgPHN0b3AgaWQ9InN0b3A4MzgiIHN0b3AtY29sb3I9IiNmZmM4MzAiIG9mZnNldD0iLjIyNSIvPiYjeGE7ICAgICAgPHN0b3AgaWQ9InN0b3A4NDAiIHN0b3AtY29sb3I9IiNmZjk4MGUiIG9mZnNldD0iLjM2OCIvPiYjeGE7ICAgICAgPHN0b3AgaWQ9InN0b3A4NDIiIHN0b3AtY29sb3I9IiNmZjhiMTYiIG9mZnNldD0iLjQwMSIvPiYjeGE7ICAgICAgPHN0b3AgaWQ9InN0b3A4NDQiIHN0b3AtY29sb3I9IiNmZjY3MmEiIG9mZnNldD0iLjQ2MiIvPiYjeGE7ICAgICAgPHN0b3AgaWQ9InN0b3A4NDYiIHN0b3AtY29sb3I9IiNmZjM2NDciIG9mZnNldD0iLjUzNCIvPiYjeGE7ICAgICAgPHN0b3AgaWQ9InN0b3A4NDgiIHN0b3AtY29sb3I9IiNlMzE1ODciIG9mZnNldD0iLjcwNSIvPiYjeGE7ICAgIDwvbGluZWFyR3JhZGllbnQ+JiN4YTsgICAgPHJhZGlhbEdyYWRpZW50IGdyYWRpZW50VW5pdHM9InVzZXJTcGFjZU9uVXNlIiBncmFkaWVudFRyYW5zZm9ybT0idHJhbnNsYXRlKDc5NzguNyw4NTIzLjk5NTkpIiByPSI4MC43OTY5OTciIGN5PSItODUxNS4xMjExIiBjeD0iLTc5MDcuMTg3IiBpZD0iYiI+JiN4YTsgICAgICA8c3RvcCBpZD0ic3RvcDg1MSIgc3RvcC1jb2xvcj0iI2ZmYmQ0ZiIgb2Zmc2V0PSIuMTI5Ii8+JiN4YTsgICAgICA8c3RvcCBpZD0ic3RvcDg1MyIgc3RvcC1jb2xvcj0iI2ZmYWMzMSIgb2Zmc2V0PSIuMTg2Ii8+JiN4YTsgICAgICA8c3RvcCBpZD0ic3RvcDg1NSIgc3RvcC1jb2xvcj0iI2ZmOWQxNyIgb2Zmc2V0PSIuMjQ3Ii8+JiN4YTsgICAgICA8c3RvcCBpZD0ic3RvcDg1NyIgc3RvcC1jb2xvcj0iI2ZmOTgwZSIgb2Zmc2V0PSIuMjgzIi8+JiN4YTsgICAgICA8c3RvcCBpZD0ic3RvcDg1OSIgc3RvcC1jb2xvcj0iI2ZmNTYzYiIgb2Zmc2V0PSIuNDAzIi8+JiN4YTsgICAgICA8c3RvcCBpZD0ic3RvcDg2MSIgc3RvcC1jb2xvcj0iI2ZmMzc1MCIgb2Zmc2V0PSIuNDY3Ii8+JiN4YTsgICAgICA8c3RvcCBpZD0ic3RvcDg2MyIgc3RvcC1jb2xvcj0iI2Y1MTU2YyIgb2Zmc2V0PSIuNzEiLz4mI3hhOyAgICAgIDxzdG9wIGlkPSJzdG9wODY1IiBzdG9wLWNvbG9yPSIjZWIwODc4IiBvZmZzZXQ9Ii43ODIiLz4mI3hhOyAgICAgIDxzdG9wIGlkPSJzdG9wODY3IiBzdG9wLWNvbG9yPSIjZTUwMDgwIiBvZmZzZXQ9Ii44NiIvPiYjeGE7ICAgIDwvcmFkaWFsR3JhZGllbnQ+JiN4YTsgICAgPHJhZGlhbEdyYWRpZW50IGdyYWRpZW50VW5pdHM9InVzZXJTcGFjZU9uVXNlIiBncmFkaWVudFRyYW5zZm9ybT0idHJhbnNsYXRlKDc5NzguNyw4NTIzLjk5NTkpIiByPSI4MC43OTY5OTciIGN5PSItODQ4Mi4wODg5IiBjeD0iLTc5MzYuNzEwOSIgaWQ9ImMiPiYjeGE7ICAgICAgPHN0b3AgaWQ9InN0b3A4NzAiIHN0b3AtY29sb3I9IiM5NjBlMTgiIG9mZnNldD0iLjMiLz4mI3hhOyAgICAgIDxzdG9wIGlkPSJzdG9wODcyIiBzdG9wLW9wYWNpdHk9Ii43NCIgc3RvcC1jb2xvcj0iI2IxMTkyNyIgb2Zmc2V0PSIuMzUxIi8+JiN4YTsgICAgICA8c3RvcCBpZD0ic3RvcDg3NCIgc3RvcC1vcGFjaXR5PSIuMzQzIiBzdG9wLWNvbG9yPSIjZGIyOTNkIiBvZmZzZXQ9Ii40MzUiLz4mI3hhOyAgICAgIDxzdG9wIGlkPSJzdG9wODc2IiBzdG9wLW9wYWNpdHk9Ii4wOTQiIHN0b3AtY29sb3I9IiNmNTMzNGIiIG9mZnNldD0iLjQ5NyIvPiYjeGE7ICAgICAgPHN0b3AgaWQ9InN0b3A4NzgiIHN0b3Atb3BhY2l0eT0iMCIgc3RvcC1jb2xvcj0iI2ZmMzc1MCIgb2Zmc2V0PSIuNTMiLz4mI3hhOyAgICA8L3JhZGlhbEdyYWRpZW50PiYjeGE7ICAgIDxyYWRpYWxHcmFkaWVudCBncmFkaWVudFVuaXRzPSJ1c2VyU3BhY2VPblVzZSIgZ3JhZGllbnRUcmFuc2Zvcm09InRyYW5zbGF0ZSg3OTc4LjcsODUyMy45OTU5KSIgcj0iNTguNTM0IiBjeT0iLTg1MzMuNDU3IiBjeD0iLTc5MjYuOTcwMiIgaWQ9ImQiPiYjeGE7ICAgICAgPHN0b3AgaWQ9InN0b3A4ODEiIHN0b3AtY29sb3I9IiNmZmY0NGYiIG9mZnNldD0iLjEzMiIvPiYjeGE7ICAgICAgPHN0b3AgaWQ9InN0b3A4ODMiIHN0b3AtY29sb3I9IiNmZmRjM2UiIG9mZnNldD0iLjI1MiIvPiYjeGE7ICAgICAgPHN0b3AgaWQ9InN0b3A4ODUiIHN0b3AtY29sb3I9IiNmZjlkMTIiIG9mZnNldD0iLjUwNiIvPiYjeGE7ICAgICAgPHN0b3AgaWQ9InN0b3A4ODciIHN0b3AtY29sb3I9IiNmZjk4MGUiIG9mZnNldD0iLjUyNiIvPiYjeGE7ICAgIDwvcmFkaWFsR3JhZGllbnQ+JiN4YTsgICAgPHJhZGlhbEdyYWRpZW50IGdyYWRpZW50VW5pdHM9InVzZXJTcGFjZU9uVXNlIiBncmFkaWVudFRyYW5zZm9ybT0idHJhbnNsYXRlKDc5NzguNyw4NTIzLjk5NTkpIiByPSIzOC40NzEwMDEiIGN5PSItODQ2MC45ODQ0IiBjeD0iLTc5NDUuNjQ3OSIgaWQ9ImUiPiYjeGE7ICAgICAgPHN0b3AgaWQ9InN0b3A4OTAiIHN0b3AtY29sb3I9IiMzYThlZTYiIG9mZnNldD0iLjM1MyIvPiYjeGE7ICAgICAgPHN0b3AgaWQ9InN0b3A4OTIiIHN0b3AtY29sb3I9IiM1Yzc5ZjAiIG9mZnNldD0iLjQ3MiIvPiYjeGE7ICAgICAgPHN0b3AgaWQ9InN0b3A4OTQiIHN0b3AtY29sb3I9IiM5MDU5ZmYiIG9mZnNldD0iLjY2OSIvPiYjeGE7ICAgICAgPHN0b3AgaWQ9InN0b3A4OTYiIHN0b3AtY29sb3I9IiNjMTM5ZTYiIG9mZnNldD0iMSIvPiYjeGE7ICAgIDwvcmFkaWFsR3JhZGllbnQ+JiN4YTsgICAgPHJhZGlhbEdyYWRpZW50IGdyYWRpZW50VW5pdHM9InVzZXJTcGFjZU9uVXNlIiBncmFkaWVudFRyYW5zZm9ybT0ibWF0cml4KDAuOTcyLC0wLjIzNSwwLjI3NSwxLjEzOCwxMDA5NS4wMDIsNzgzMy43OTM5KSIgcj0iMjAuMzk2OTk5IiBjeT0iLTg0OTEuNTQ1OSIgY3g9Ii03OTM1LjYyMDEiIGlkPSJmIj4mI3hhOyAgICAgIDxzdG9wIGlkPSJzdG9wODk5IiBzdG9wLW9wYWNpdHk9IjAiIHN0b3AtY29sb3I9IiM5MDU5ZmYiIG9mZnNldD0iLjIwNiIvPiYjeGE7ICAgICAgPHN0b3AgaWQ9InN0b3A5MDEiIHN0b3Atb3BhY2l0eT0iLjA2NCIgc3RvcC1jb2xvcj0iIzhjNGZmMyIgb2Zmc2V0PSIuMjc4Ii8+JiN4YTsgICAgICA8c3RvcCBpZD0ic3RvcDkwMyIgc3RvcC1vcGFjaXR5PSIuNDUiIHN0b3AtY29sb3I9IiM3NzE2YTgiIG9mZnNldD0iLjc0NyIvPiYjeGE7ICAgICAgPHN0b3AgaWQ9InN0b3A5MDUiIHN0b3Atb3BhY2l0eT0iLjYiIHN0b3AtY29sb3I9IiM2ZTAwOGIiIG9mZnNldD0iLjk3NSIvPiYjeGE7ICAgIDwvcmFkaWFsR3JhZGllbnQ+JiN4YTsgICAgPHJhZGlhbEdyYWRpZW50IGdyYWRpZW50VW5pdHM9InVzZXJTcGFjZU9uVXNlIiBncmFkaWVudFRyYW5zZm9ybT0idHJhbnNsYXRlKDc5NzguNyw4NTIzLjk5NTkpIiByPSIyNy42NzYwMDEiIGN5PSItODUxOC40MjY4IiBjeD0iLTc5MzcuNzMxIiBpZD0iZyI+JiN4YTsgICAgICA8c3RvcCBpZD0ic3RvcDkwOCIgc3RvcC1jb2xvcj0iI2ZmZTIyNiIgb2Zmc2V0PSIwIi8+JiN4YTsgICAgICA8c3RvcCBpZD0ic3RvcDkxMCIgc3RvcC1jb2xvcj0iI2ZmZGIyNyIgb2Zmc2V0PSIuMTIxIi8+JiN4YTsgICAgICA8c3RvcCBpZD0ic3RvcDkxMiIgc3RvcC1jb2xvcj0iI2ZmYzgyYSIgb2Zmc2V0PSIuMjk1Ii8+JiN4YTsgICAgICA8c3RvcCBpZD0ic3RvcDkxNCIgc3RvcC1jb2xvcj0iI2ZmYTkzMCIgb2Zmc2V0PSIuNTAyIi8+JiN4YTsgICAgICA8c3RvcCBpZD0ic3RvcDkxNiIgc3RvcC1jb2xvcj0iI2ZmN2UzNyIgb2Zmc2V0PSIuNzMyIi8+JiN4YTsgICAgICA8c3RvcCBpZD0ic3RvcDkxOCIgc3RvcC1jb2xvcj0iI2ZmNzEzOSIgb2Zmc2V0PSIuNzkyIi8+JiN4YTsgICAgPC9yYWRpYWxHcmFkaWVudD4mI3hhOyAgICA8cmFkaWFsR3JhZGllbnQgZ3JhZGllbnRVbml0cz0idXNlclNwYWNlT25Vc2UiIGdyYWRpZW50VHJhbnNmb3JtPSJ0cmFuc2xhdGUoNzk3OC43LDg1MjMuOTk1OSkiIHI9IjExOC4wODEiIGN5PSItODUzNS45ODE0IiBjeD0iLTc5MTUuOTc3MSIgaWQ9ImgiPiYjeGE7ICAgICAgPHN0b3AgaWQ9InN0b3A5MjEiIHN0b3AtY29sb3I9IiNmZmY0NGYiIG9mZnNldD0iLjExMyIvPiYjeGE7ICAgICAgPHN0b3AgaWQ9InN0b3A5MjMiIHN0b3AtY29sb3I9IiNmZjk4MGUiIG9mZnNldD0iLjQ1NiIvPiYjeGE7ICAgICAgPHN0b3AgaWQ9InN0b3A5MjUiIHN0b3AtY29sb3I9IiNmZjU2MzQiIG9mZnNldD0iLjYyMiIvPiYjeGE7ICAgICAgPHN0b3AgaWQ9InN0b3A5MjciIHN0b3AtY29sb3I9IiNmZjM2NDciIG9mZnNldD0iLjcxNiIvPiYjeGE7ICAgICAgPHN0b3AgaWQ9InN0b3A5MjkiIHN0b3AtY29sb3I9IiNlMzE1ODciIG9mZnNldD0iLjkwNCIvPiYjeGE7ICAgIDwvcmFkaWFsR3JhZGllbnQ+JiN4YTsgICAgPHJhZGlhbEdyYWRpZW50IGdyYWRpZW50VW5pdHM9InVzZXJTcGFjZU9uVXNlIiBncmFkaWVudFRyYW5zZm9ybT0ibWF0cml4KDAuMTA1LDAuOTk1LC0wLjY1MywwLjA2OSwtNDY4MC4zMDQsODQ3MC4xODY5KSIgcj0iODYuNDk5MDAxIiBjeT0iLTg1MjIuODU5NCIgY3g9Ii03OTI3LjE2NSIgaWQ9ImkiPiYjeGE7ICAgICAgPHN0b3AgaWQ9InN0b3A5MzIiIHN0b3AtY29sb3I9IiNmZmY0NGYiIG9mZnNldD0iMCIvPiYjeGE7ICAgICAgPHN0b3AgaWQ9InN0b3A5MzQiIHN0b3AtY29sb3I9IiNmZmU4NDciIG9mZnNldD0iLjA2Ii8+JiN4YTsgICAgICA8c3RvcCBpZD0ic3RvcDkzNiIgc3RvcC1jb2xvcj0iI2ZmYzgzMCIgb2Zmc2V0PSIuMTY4Ii8+JiN4YTsgICAgICA8c3RvcCBpZD0ic3RvcDkzOCIgc3RvcC1jb2xvcj0iI2ZmOTgwZSIgb2Zmc2V0PSIuMzA0Ii8+JiN4YTsgICAgICA8c3RvcCBpZD0ic3RvcDk0MCIgc3RvcC1jb2xvcj0iI2ZmOGIxNiIgb2Zmc2V0PSIuMzU2Ii8+JiN4YTsgICAgICA8c3RvcCBpZD0ic3RvcDk0MiIgc3RvcC1jb2xvcj0iI2ZmNjcyYSIgb2Zmc2V0PSIuNDU1Ii8+JiN4YTsgICAgICA8c3RvcCBpZD0ic3RvcDk0NCIgc3RvcC1jb2xvcj0iI2ZmMzY0NyIgb2Zmc2V0PSIuNTciLz4mI3hhOyAgICAgIDxzdG9wIGlkPSJzdG9wOTQ2IiBzdG9wLWNvbG9yPSIjZTMxNTg3IiBvZmZzZXQ9Ii43MzciLz4mI3hhOyAgICA8L3JhZGlhbEdyYWRpZW50PiYjeGE7ICAgIDxyYWRpYWxHcmFkaWVudCBncmFkaWVudFVuaXRzPSJ1c2VyU3BhY2VPblVzZSIgZ3JhZGllbnRUcmFuc2Zvcm09InRyYW5zbGF0ZSg3OTc4LjcsODUyMy45OTU5KSIgcj0iNzMuNzIwMDAxIiBjeT0iLTg1MDguMTc1OCIgY3g9Ii03OTM4LjM4MjgiIGlkPSJqIj4mI3hhOyAgICAgIDxzdG9wIGlkPSJzdG9wOTQ5IiBzdG9wLWNvbG9yPSIjZmZmNDRmIiBvZmZzZXQ9Ii4xMzciLz4mI3hhOyAgICAgIDxzdG9wIGlkPSJzdG9wOTUxIiBzdG9wLWNvbG9yPSIjZmY5ODBlIiBvZmZzZXQ9Ii40OCIvPiYjeGE7ICAgICAgPHN0b3AgaWQ9InN0b3A5NTMiIHN0b3AtY29sb3I9IiNmZjU2MzQiIG9mZnNldD0iLjU5MiIvPiYjeGE7ICAgICAgPHN0b3AgaWQ9InN0b3A5NTUiIHN0b3AtY29sb3I9IiNmZjM2NDciIG9mZnNldD0iLjY1NSIvPiYjeGE7ICAgICAgPHN0b3AgaWQ9InN0b3A5NTciIHN0b3AtY29sb3I9IiNlMzE1ODciIG9mZnNldD0iLjkwNCIvPiYjeGE7ICAgIDwvcmFkaWFsR3JhZGllbnQ+JiN4YTsgICAgPHJhZGlhbEdyYWRpZW50IGdyYWRpZW50VW5pdHM9InVzZXJTcGFjZU9uVXNlIiBncmFkaWVudFRyYW5zZm9ybT0idHJhbnNsYXRlKDc5NzguNyw4NTIzLjk5NTkpIiByPSI4MC42ODU5OTciIGN5PSItODUwMy44NjEzIiBjeD0iLTc5MTguOTIyOSIgaWQ9ImsiPiYjeGE7ICAgICAgPHN0b3AgaWQ9InN0b3A5NjAiIHN0b3AtY29sb3I9IiNmZmY0NGYiIG9mZnNldD0iLjA5NCIvPiYjeGE7ICAgICAgPHN0b3AgaWQ9InN0b3A5NjIiIHN0b3AtY29sb3I9IiNmZmUxNDEiIG9mZnNldD0iLjIzMSIvPiYjeGE7ICAgICAgPHN0b3AgaWQ9InN0b3A5NjQiIHN0b3AtY29sb3I9IiNmZmFmMWUiIG9mZnNldD0iLjUwOSIvPiYjeGE7ICAgICAgPHN0b3AgaWQ9InN0b3A5NjYiIHN0b3AtY29sb3I9IiNmZjk4MGUiIG9mZnNldD0iLjYyNiIvPiYjeGE7ICAgIDwvcmFkaWFsR3JhZGllbnQ+JiN4YTsgICAgPGxpbmVhckdyYWRpZW50IGdyYWRpZW50VHJhbnNmb3JtPSJ0cmFuc2xhdGUoMy43LC0wLjAwNDA4NTUpIiBncmFkaWVudFVuaXRzPSJ1c2VyU3BhY2VPblVzZSIgeTI9IjY2LjgwNiIgeDI9IjE1LjI2NyIgeTE9IjEyLjA2MSIgeDE9IjcwLjAxMyIgaWQ9ImwiPiYjeGE7ICAgICAgPHN0b3AgaWQ9InN0b3A5NjkiIHN0b3Atb3BhY2l0eT0iLjgiIHN0b3AtY29sb3I9IiNmZmY0NGYiIG9mZnNldD0iLjE2NyIvPiYjeGE7ICAgICAgPHN0b3AgaWQ9InN0b3A5NzEiIHN0b3Atb3BhY2l0eT0iLjYzNCIgc3RvcC1jb2xvcj0iI2ZmZjQ0ZiIgb2Zmc2V0PSIuMjY2Ii8+JiN4YTsgICAgICA8c3RvcCBpZD0ic3RvcDk3MyIgc3RvcC1vcGFjaXR5PSIuMjE3IiBzdG9wLWNvbG9yPSIjZmZmNDRmIiBvZmZzZXQ9Ii40ODkiLz4mI3hhOyAgICAgIDxzdG9wIGlkPSJzdG9wOTc1IiBzdG9wLW9wYWNpdHk9IjAiIHN0b3AtY29sb3I9IiNmZmY0NGYiIG9mZnNldD0iLjYiLz4mI3hhOyAgICA8L2xpbmVhckdyYWRpZW50PiYjeGE7ICA8L2RlZnM+JiN4YTsgIDxwYXRoIHN0eWxlPSJmaWxsOnVybCgjYSkiIGlkPSJwYXRoOTgwIiBkPSJtIDc5LjYxNiwyNi44MjY5MTUgYyAtMS42ODQsLTQuMDUyIC01LjEsLTguNDI3IC03Ljc3NSwtOS44MSBhIDQwLjI2Niw0MC4yNjYgMCAwIDEgMy45MjUsMTEuNzY0IGwgMC4wMDcsMC4wNjUgYyAtNC4zODIsLTEwLjkyNSAtMTEuODEzLC0xNS4zMyAtMTcuODgyLC0yNC45MjIwMDA1IC0wLjMwNywtMC40ODUgLTAuNjE0LC0wLjk3MSAtMC45MTMsLTEuNDg0IC0wLjE3MSwtMC4yOTMgLTAuMzA4LC0wLjU1NyAtMC40MjcsLTAuOCBhIDcuMDUzLDcuMDUzIDAgMCAxIC0wLjU3OCwtMS41MzUgMC4xLDAuMSAwIDAgMCAtMC4wODgsLTAuMSAwLjEzOCwwLjEzOCAwIDAgMCAtMC4wNzMsMCBjIC0wLjAwNSwwIC0wLjAxMywwLjAwOSAtMC4wMTksMC4wMTEgLTAuMDA2LDAuMDAyIC0wLjAxOSwwLjAxMSAtMC4wMjgsMC4wMTUgbCAwLjAxNSwtMC4wMjYgYyAtOS43MzUsNS43IC0xMy4wMzgsMTYuMjUyMDAwNSAtMTMuMzQyLDIxLjUzMDAwMDUgYSAxOS4zODcsMTkuMzg3IDAgMCAwIC0xMC42NjYsNC4xMTEgMTEuNTg3LDExLjU4NyAwIDAgMCAtMSwtMC43NTggMTcuOTY4LDE3Ljk2OCAwIDAgMSAtMC4xMDksLTkuNDczIDI4LjcwNSwyOC43MDUgMCAwIDAgLTkuMzI5LDcuMjEgaCAtMC4wMTggYyAtMS41MzYsLTEuOTQ3IC0xLjQyOCwtOC4zNjcgLTEuMzQsLTkuNzA4IGEgNi45MjgsNi45MjggMCAwIDAgLTEuMjk0LDAuNjg3IDI4LjIyNSwyOC4yMjUgMCAwIDAgLTMuNzg4LDMuMjQ1IDMzLjg0NSwzMy44NDUgMCAwIDAgLTMuNjIzLDQuMzQ3IHYgMC4wMDYgLTAuMDA3IGEgMzIuNzMzLDMyLjczMyAwIDAgMCAtNS4yLDExLjc0MyBsIC0wLjA1MiwwLjI1NiBjIC0wLjA3MywwLjM0MSAtMC4zMzYsMi4wNDkgLTAuMzgxLDIuNDIgMCwwLjAyOSAtMC4wMDYsMC4wNTYgLTAuMDA5LDAuMDg1IEEgMzYuOTM3LDM2LjkzNyAwIDAgMCA1LDQxLjA0MTkxNSB2IDAuMiBhIDM4Ljc1OSwzOC43NTkgMCAwIDAgNzYuOTU0LDYuNTU0IGMgMC4wNjUsLTAuNSAwLjExOCwtMC45OTUgMC4xNzYsLTEuNSBhIDM5Ljg1NywzOS44NTcgMCAwIDAgLTIuNTE0LC0xOS40NjkgeiBtIC00NC42NywzMC4zMzggYyAwLjE4MSwwLjA4NyAwLjM1MSwwLjE4MSAwLjUzNywwLjI2NCBsIDAuMDI3LDAuMDE3IHEgLTAuMjgyLC0wLjEzNSAtMC41NjQsLTAuMjgxIHogbSA4Ljg3OCwtMjMuMzc2IHogbSAzMS45NTIsLTQuOTM0IHYgLTAuMDM3IGwgMC4wMDcsMC4wNDEgeiIvPiYjeGE7ICA8cGF0aCBzdHlsZT0iZmlsbDp1cmwoI2IpIiBpZD0icGF0aDk4MiIgZD0ibSA3OS42MTYsMjYuODI2OTE1IGMgLTEuNjg0LC00LjA1MiAtNS4xLC04LjQyNyAtNy43NzUsLTkuODEgYSA0MC4yNjYsNDAuMjY2IDAgMCAxIDMuOTI1LDExLjc2NCB2IDAuMDM3IGwgMC4wMDcsMC4wNDEgYSAzNS4xLDM1LjEgMCAwIDEgLTEuMjA2LDI2LjE1OCBjIC00LjQ0Miw5LjUzMSAtMTUuMTk0LDE5LjMgLTMyLjAyNCwxOC44MjUgLTE4LjE4NSwtMC41MTUgLTM0LjIsLTE0LjAwOSAtMzcuMTk0LC0zMS42ODMgLTAuNTQ1LC0yLjc4NyAwLC00LjIgMC4yNzQsLTYuNDY1IEEgMjguODc2LDI4Ljg3NiAwIDAgMCA1LDQxLjA0MTkxNSB2IDAuMiBhIDM4Ljc1OSwzOC43NTkgMCAwIDAgNzYuOTU0LDYuNTU0IGMgMC4wNjUsLTAuNSAwLjExOCwtMC45OTUgMC4xNzYsLTEuNSBhIDM5Ljg1NywzOS44NTcgMCAwIDAgLTIuNTE0LC0xOS40NjkgeiIvPiYjeGE7ICA8cGF0aCBzdHlsZT0iZmlsbDp1cmwoI2MpIiBpZD0icGF0aDk4NCIgZD0ibSA3OS42MTYsMjYuODI2OTE1IGMgLTEuNjg0LC00LjA1MiAtNS4xLC04LjQyNyAtNy43NzUsLTkuODEgYSA0MC4yNjYsNDAuMjY2IDAgMCAxIDMuOTI1LDExLjc2NCB2IDAuMDM3IGwgMC4wMDcsMC4wNDEgYSAzNS4xLDM1LjEgMCAwIDEgLTEuMjA2LDI2LjE1OCBjIC00LjQ0Miw5LjUzMSAtMTUuMTk0LDE5LjMgLTMyLjAyNCwxOC44MjUgLTE4LjE4NSwtMC41MTUgLTM0LjIsLTE0LjAwOSAtMzcuMTk0LC0zMS42ODMgLTAuNTQ1LC0yLjc4NyAwLC00LjIgMC4yNzQsLTYuNDY1IEEgMjguODc2LDI4Ljg3NiAwIDAgMCA1LDQxLjA0MTkxNSB2IDAuMiBhIDM4Ljc1OSwzOC43NTkgMCAwIDAgNzYuOTU0LDYuNTU0IGMgMC4wNjUsLTAuNSAwLjExOCwtMC45OTUgMC4xNzYsLTEuNSBhIDM5Ljg1NywzOS44NTcgMCAwIDAgLTIuNTE0LC0xOS40NjkgeiIvPiYjeGE7ICA8cGF0aCBzdHlsZT0iZmlsbDp1cmwoI2QpIiBpZD0icGF0aDk4NiIgZD0ibSA2MC43ODIsMzEuMzgyOTE1IGMgMC4wODQsMC4wNTkgMC4xNjIsMC4xMTggMC4yNDEsMC4xNzcgYSAyMS4xLDIxLjEgMCAwIDAgLTMuNiwtNC42OTUgQyA0NS4zNzcsMTQuODE2OTE1IDU0LjI2NiwwLjc0MTkxNDUgNTUuNzY1LDAuMDI2OTE0NSBsIDAuMDE1LC0wLjAyMiBjIC05LjczNSw1LjcgLTEzLjAzOCwxNi4yNTIwMDA1IC0xMy4zNDIsMjEuNTMwMDAwNSAwLjQ1MiwtMC4wMzEgMC45LC0wLjA2OSAxLjM2MiwtMC4wNjkgYSAxOS41NiwxOS41NiAwIDAgMSAxNi45ODIsOS45MTcgeiIvPiYjeGE7ICA8cGF0aCBzdHlsZT0iZmlsbDp1cmwoI2UpIiBpZD0icGF0aDk4OCIgZD0ibSA0My44MjUsMzMuNzg4OTE1IGMgLTAuMDY0LDAuOTY0IC0zLjQ3LDQuMjg5IC00LjY2MSw0LjI4OSAtMTEuMDIxLDAgLTEyLjgxLDYuNjY3IC0xMi44MSw2LjY2NyAwLjQ4OCw1LjYxNCA0LjQsMTAuMjM4IDkuMTI5LDEyLjY4NCAwLjIxNiwwLjExMiAwLjQzNSwwLjIxMyAwLjY1NCwwLjMxMiBxIDAuNTY5LDAuMjUyIDEuMTM4LDAuNDY2IGEgMTcuMjM1LDE3LjIzNSAwIDAgMCA1LjA0MywwLjk3MyBjIDE5LjMxNywwLjkwNiAyMy4wNTksLTIzLjEgOS4xMTksLTMwLjA2NiBhIDEzLjM4LDEzLjM4IDAgMCAxIDkuMzQ1LDIuMjY5IDE5LjU2LDE5LjU2IDAgMCAwIC0xNi45ODIsLTkuOTE3IGMgLTAuNDYsMCAtMC45MSwwLjAzOCAtMS4zNjIsMC4wNjkgYSAxOS4zODcsMTkuMzg3IDAgMCAwIC0xMC42NjYsNC4xMTEgYyAwLjU5MSwwLjUgMS4yNTgsMS4xNjggMi42NjMsMi41NTMgMi42MywyLjU5MSA5LjM3NSw1LjI3NSA5LjM5LDUuNTkgeiIvPiYjeGE7ICA8cGF0aCBzdHlsZT0iZmlsbDp1cmwoI2YpIiBpZD0icGF0aDk5MCIgZD0ibSA0My44MjUsMzMuNzg4OTE1IGMgLTAuMDY0LDAuOTY0IC0zLjQ3LDQuMjg5IC00LjY2MSw0LjI4OSAtMTEuMDIxLDAgLTEyLjgxLDYuNjY3IC0xMi44MSw2LjY2NyAwLjQ4OCw1LjYxNCA0LjQsMTAuMjM4IDkuMTI5LDEyLjY4NCAwLjIxNiwwLjExMiAwLjQzNSwwLjIxMyAwLjY1NCwwLjMxMiBxIDAuNTY5LDAuMjUyIDEuMTM4LDAuNDY2IGEgMTcuMjM1LDE3LjIzNSAwIDAgMCA1LjA0MywwLjk3MyBjIDE5LjMxNywwLjkwNiAyMy4wNTksLTIzLjEgOS4xMTksLTMwLjA2NiBhIDEzLjM4LDEzLjM4IDAgMCAxIDkuMzQ1LDIuMjY5IDE5LjU2LDE5LjU2IDAgMCAwIC0xNi45ODIsLTkuOTE3IGMgLTAuNDYsMCAtMC45MSwwLjAzOCAtMS4zNjIsMC4wNjkgYSAxOS4zODcsMTkuMzg3IDAgMCAwIC0xMC42NjYsNC4xMTEgYyAwLjU5MSwwLjUgMS4yNTgsMS4xNjggMi42NjMsMi41NTMgMi42MywyLjU5MSA5LjM3NSw1LjI3NSA5LjM5LDUuNTkgeiIvPiYjeGE7ICA8cGF0aCBzdHlsZT0iZmlsbDp1cmwoI2cpIiBpZD0icGF0aDk5MiIgZD0ibSAyOS45NjUsMjQuMzU2OTE1IGMgMC4zMTQsMC4yIDAuNTczLDAuMzc0IDAuOCwwLjUzMSBhIDE3Ljk2OCwxNy45NjggMCAwIDEgLTAuMTA5LC05LjQ3MyAyOC43MDUsMjguNzA1IDAgMCAwIC05LjMyOSw3LjIxIGMgMC4xODksLTAuMDA1IDUuODExLC0wLjEwNiA4LjYzOCwxLjczMiB6Ii8+JiN4YTsgIDxwYXRoIHN0eWxlPSJmaWxsOnVybCgjaCkiIGlkPSJwYXRoOTk0IiBkPSJtIDUuMzU0LDQyLjE1ODkxNSBjIDIuOTkxLDE3LjY3NCAxOS4wMDksMzEuMTY4IDM3LjE5NCwzMS42ODMgMTYuODMsMC40NzYgMjcuNTgyLC05LjI5NCAzMi4wMjQsLTE4LjgyNSBhIDM1LjEsMzUuMSAwIDAgMCAxLjIwNiwtMjYuMTU4IHYgLTAuMDM3IGMgMCwtMC4wMjkgLTAuMDA2LC0wLjA0NiAwLC0wLjAzNyBsIDAuMDA3LDAuMDY1IGMgMS4zNzUsOC45NzcgLTMuMTkxLDE3LjY3NCAtMTAuMzI5LDIzLjU1NSBsIC0wLjAyMiwwLjA1IGMgLTEzLjkwOCwxMS4zMjcgLTI3LjIxOCw2LjgzNCAtMjkuOTEyLDUgcSAtMC4yODIsLTAuMTM1IC0wLjU2NCwtMC4yODEgYyAtOC4xMDksLTMuODc2IC0xMS40NTksLTExLjI2NCAtMTAuNzQxLC0xNy42IGEgOS45NTMsOS45NTMgMCAwIDEgLTkuMTgxLC01Ljc3NSAxNC42MTgsMTQuNjE4IDAgMCAxIDE0LjI0OSwtMC41NzIgMTkuMywxOS4zIDAgMCAwIDE0LjU1MiwwLjU3MiBjIC0wLjAxNSwtMC4zMTUgLTYuNzYsLTMgLTkuMzksLTUuNTkgLTEuNDA1LC0xLjM4NSAtMi4wNzIsLTIuMDUyIC0yLjY2MywtMi41NTMgYSAxMS41ODcsMTEuNTg3IDAgMCAwIC0xLC0wLjc1OCBjIC0wLjIzLC0wLjE1NyAtMC40ODksLTAuMzI3IC0wLjgsLTAuNTMxIC0yLjgyNywtMS44MzggLTguNDQ5LC0xLjczNyAtOC42MzUsLTEuNzMyIGggLTAuMDE4IGMgLTEuNTM2LC0xLjk0NyAtMS40MjgsLTguMzY3IC0xLjM0LC05LjcwOCBhIDYuOTI4LDYuOTI4IDAgMCAwIC0xLjI5NCwwLjY4NyAyOC4yMjUsMjguMjI1IDAgMCAwIC0zLjc4OCwzLjI0NSAzMy44NDUsMzMuODQ1IDAgMCAwIC0zLjYzOCw0LjMzNyB2IDAuMDA2IC0wLjAwNyBhIDMyLjczMywzMi43MzMgMCAwIDAgLTUuMiwxMS43NDMgYyAtMC4wMTksMC4wNzkgLTEuMzk2LDYuMDk5IC0wLjcxNyw5LjIyMSB6Ii8+JiN4YTsgIDxwYXRoIHN0eWxlPSJmaWxsOnVybCgjaSkiIGlkPSJwYXRoOTk2IiBkPSJtIDU3LjQyNSwyNi44NjQ5MTUgYSAyMS4xLDIxLjEgMCAwIDEgMy42LDQuNyBjIDAuMjEzLDAuMTYxIDAuNDEyLDAuMzIxIDAuNTgxLDAuNDc2IDguNzg3LDguMSA0LjE4MywxOS41NSAzLjg0LDIwLjM2NSA3LjEzOCwtNS44ODEgMTEuNywtMTQuNTc4IDEwLjMyOSwtMjMuNTU1IC00LjM4NCwtMTAuOTMgLTExLjgxNSwtMTUuMzM1IC0xNy44ODQsLTI0LjkyNzAwMDUgLTAuMzA3LC0wLjQ4NSAtMC42MTQsLTAuOTcxIC0wLjkxMywtMS40ODQgLTAuMTcxLC0wLjI5MyAtMC4zMDgsLTAuNTU3IC0wLjQyNywtMC44IGEgNy4wNTMsNy4wNTMgMCAwIDEgLTAuNTc4LC0xLjUzNSAwLjEsMC4xIDAgMCAwIC0wLjA4OCwtMC4xIDAuMTM4LDAuMTM4IDAgMCAwIC0wLjA3MywwIGMgLTAuMDA1LDAgLTAuMDEzLDAuMDA5IC0wLjAxOSwwLjAxMSAtMC4wMDYsMC4wMDIgLTAuMDE5LDAuMDExIC0wLjAyOCwwLjAxNSAtMS40OTksMC43MTEgLTEwLjM4OCwxNC43ODYwMDA1IDEuNjYsMjYuODM0MDAwNSB6Ii8+JiN4YTsgIDxwYXRoIHN0eWxlPSJmaWxsOnVybCgjaikiIGlkPSJwYXRoOTk4IiBkPSJtIDYxLjYsMzIuMDM1OTE1IGMgLTAuMTY5LC0wLjE1NSAtMC4zNjgsLTAuMzE1IC0wLjU4MSwtMC40NzYgLTAuMDc5LC0wLjA1OSAtMC4xNTcsLTAuMTE4IC0wLjI0MSwtMC4xNzcgYSAxMy4zOCwxMy4zOCAwIDAgMCAtOS4zNDUsLTIuMjY5IGMgMTMuOTQsNi45NyAxMC4yLDMwLjk3MiAtOS4xMTksMzAuMDY2IGEgMTcuMjM1LDE3LjIzNSAwIDAgMSAtNS4wNDMsLTAuOTczIHEgLTAuNTY5LC0wLjIxMyAtMS4xMzgsLTAuNDY2IGMgLTAuMjE5LC0wLjEgLTAuNDM4LC0wLjIgLTAuNjU0LC0wLjMxMiBsIDAuMDI3LDAuMDE3IGMgMi42OTQsMS44MzkgMTYsNi4zMzIgMjkuOTEyLC01IGwgMC4wMjIsLTAuMDUgYyAwLjM0NywtMC44MSA0Ljk1MSwtMTIuMjYzIC0zLjg0LC0yMC4zNiB6Ii8+JiN4YTsgIDxwYXRoIHN0eWxlPSJmaWxsOnVybCgjaykiIGlkPSJwYXRoMTAwMCIgZD0ibSAyNi4zNTQsNDQuNzQ0OTE1IGMgMCwwIDEuNzg5LC02LjY2NyAxMi44MSwtNi42NjcgMS4xOTEsMCA0LjYsLTMuMzI1IDQuNjYxLC00LjI4OSBhIDE5LjMsMTkuMyAwIDAgMSAtMTQuNTUyLC0wLjU3MiAxNC42MTgsMTQuNjE4IDAgMCAwIC0xNC4yNDksMC41NzIgOS45NTMsOS45NTMgMCAwIDAgOS4xODEsNS43NzUgYyAtMC43MTgsNi4zMzcgMi42MzIsMTMuNzI1IDEwLjc0MSwxNy42IDAuMTgxLDAuMDg3IDAuMzUxLDAuMTgxIDAuNTM3LDAuMjY0IC00LjczMywtMi40NDUgLTguNjQxLC03LjA2OSAtOS4xMjksLTEyLjY4MyB6Ii8+JiN4YTsgIDxwYXRoIHN0eWxlPSJmaWxsOnVybCgjbCkiIGlkPSJwYXRoMTAwMiIgZD0ibSA3OS42MTYsMjYuODI2OTE1IGMgLTEuNjg0LC00LjA1MiAtNS4xLC04LjQyNyAtNy43NzUsLTkuODEgYSA0MC4yNjYsNDAuMjY2IDAgMCAxIDMuOTI1LDExLjc2NCBsIDAuMDA3LDAuMDY1IGMgLTQuMzgyLC0xMC45MjUgLTExLjgxMywtMTUuMzMgLTE3Ljg4MiwtMjQuOTIyMDAwNSAtMC4zMDcsLTAuNDg1IC0wLjYxNCwtMC45NzEgLTAuOTEzLC0xLjQ4NCAtMC4xNzEsLTAuMjkzIC0wLjMwOCwtMC41NTcgLTAuNDI3LC0wLjggYSA3LjA1Myw3LjA1MyAwIDAgMSAtMC41NzgsLTEuNTM1IDAuMSwwLjEgMCAwIDAgLTAuMDg4LC0wLjEgMC4xMzgsMC4xMzggMCAwIDAgLTAuMDczLDAgYyAtMC4wMDUsMCAtMC4wMTMsMC4wMDkgLTAuMDE5LDAuMDExIC0wLjAwNiwwLjAwMiAtMC4wMTksMC4wMTEgLTAuMDI4LDAuMDE1IGwgMC4wMTUsLTAuMDI2IGMgLTkuNzM1LDUuNyAtMTMuMDM4LDE2LjI1MjAwMDUgLTEzLjM0MiwyMS41MzAwMDA1IDAuNDUyLC0wLjAzMSAwLjksLTAuMDY5IDEuMzYyLC0wLjA2OSBhIDE5LjU2LDE5LjU2IDAgMCAxIDE2Ljk4Miw5LjkxNyAxMy4zOCwxMy4zOCAwIDAgMCAtOS4zNDUsLTIuMjY5IGMgMTMuOTQsNi45NyAxMC4yLDMwLjk3MiAtOS4xMTksMzAuMDY2IGEgMTcuMjM1LDE3LjIzNSAwIDAgMSAtNS4wNDMsLTAuOTczIHEgLTAuNTY5LC0wLjIxMyAtMS4xMzgsLTAuNDY2IGMgLTAuMjE5LC0wLjEgLTAuNDM4LC0wLjIgLTAuNjU0LC0wLjMxMiBsIDAuMDI3LDAuMDE3IHEgLTAuMjgyLC0wLjEzNSAtMC41NjQsLTAuMjgxIGMgMC4xODEsMC4wODcgMC4zNTEsMC4xODEgMC41MzcsMC4yNjQgLTQuNzMzLC0yLjQ0NiAtOC42NDEsLTcuMDcgLTkuMTI5LC0xMi42ODQgMCwwIDEuNzg5LC02LjY2NyAxMi44MSwtNi42NjcgMS4xOTEsMCA0LjYsLTMuMzI1IDQuNjYxLC00LjI4OSAtMC4wMTUsLTAuMzE1IC02Ljc2LC0zIC05LjM5LC01LjU5IC0xLjQwNSwtMS4zODUgLTIuMDcyLC0yLjA1MiAtMi42NjMsLTIuNTUzIGEgMTEuNTg3LDExLjU4NyAwIDAgMCAtMSwtMC43NTggMTcuOTY4LDE3Ljk2OCAwIDAgMSAtMC4xMDksLTkuNDczIDI4LjcwNSwyOC43MDUgMCAwIDAgLTkuMzI5LDcuMjEgaCAtMC4wMTggYyAtMS41MzYsLTEuOTQ3IC0xLjQyOCwtOC4zNjcgLTEuMzQsLTkuNzA4IGEgNi45MjgsNi45MjggMCAwIDAgLTEuMjk0LDAuNjg3IDI4LjIyNSwyOC4yMjUgMCAwIDAgLTMuNzg4LDMuMjQ1IDMzLjg0NSwzMy44NDUgMCAwIDAgLTMuNjIzLDQuMzQ3IHYgMC4wMDYgLTAuMDA3IGEgMzIuNzMzLDMyLjczMyAwIDAgMCAtNS4yLDExLjc0MyBsIC0wLjA1MiwwLjI1NiBjIC0wLjA3MywwLjM0MSAtMC40LDIuMDczIC0wLjQ0NywyLjQ0NSAwLDAuMDI4IDAsLTAuMDI5IDAsMCBBIDQ1LjA5NCw0NS4wOTQgMCAwIDAgNSw0MS4wNDE5MTUgdiAwLjIgYSAzOC43NTksMzguNzU5IDAgMCAwIDc2Ljk1NCw2LjU1NCBjIDAuMDY1LC0wLjUgMC4xMTgsLTAuOTk1IDAuMTc2LC0xLjUgYSAzOS44NTcsMzkuODU3IDAgMCAwIC0yLjUxNCwtMTkuNDY5IHogbSAtMy44NDUsMS45OTEgMC4wMDcsMC4wNDEgeiIvPiYjeGE7PC9zdmc+;whiteSpace=wrap;html=1;rounded=0;glass=0;treeMoving=0;treeFolding=0;align=center;" parent="1" vertex="1">
                        <mxGeometry x="340" y="20" width="120" height="50" as="geometry"/>
                    </mxCell>
                </UserObject>
                <mxCell id="nrITKkSTMbPHJfI5Osgz-23" value="" style="endArrow=classic;html=1;entryX=0.5;entryY=1;entryDx=0;entryDy=0;exitX=1;exitY=0.5;exitDx=0;exitDy=0;" parent="1" source="nrITKkSTMbPHJfI5Osgz-21" target="dNxyNK7c78bLwvsdeMH5-18" edge="1">
                    <mxGeometry width="50" height="50" relative="1" as="geometry">
                        <mxPoint x="60" y="430" as="sourcePoint"/>
                        <mxPoint x="110" y="380" as="targetPoint"/>
                    </mxGeometry>
                </mxCell>
                <mxCell id="nrITKkSTMbPHJfI5Osgz-24" value="configs" style="text;html=1;align=center;verticalAlign=middle;resizable=0;points=[];labelBackgroundColor=#ffffff;" parent="nrITKkSTMbPHJfI5Osgz-23" vertex="1" connectable="0">
                    <mxGeometry x="-0.3314" y="-1" relative="1" as="geometry">
                        <mxPoint x="3" y="-2" as="offset"/>
                    </mxGeometry>
                </mxCell>
            </root>
        </mxGraphModel>
    </diagram>
</mxfile>